<?xml version="1.0" encoding="UTF-8"?>
<svg xmlns="http://www.w3.org/2000/svg" xmlns:xlink="http://www.w3.org/1999/xlink" width="96px" height="72px" viewBox="0 0 95 72" version="1.1">
<g id="surface1">
<path style=" stroke:none;fill-rule:nonzero;fill:rgb(100%,100%,100%);fill-opacity:1;" d="M 68.890625 72.109375 C 45.925781 72.109375 23.019531 72.109375 0.109375 72.109375 C 0.109375 48.109375 0.109375 24.109375 0.109375 0.109375 C 31.777344 0.109375 63.441406 0.109375 95.109375 0.109375 C 95.109375 24.109375 95.109375 48.109375 95.109375 72.109375 C 86.386719 72.109375 77.667969 72.109375 68.890625 72.109375 M 70.679688 47.917969 C 70.675781 47.871094 70.675781 47.824219 70.722656 47.699219 C 70.726562 47.636719 70.730469 47.578125 70.753906 47.414062 C 70.753906 39.921875 70.765625 32.429688 70.742188 24.941406 C 70.738281 24.375 70.46875 23.8125 70.324219 23.1875 C 70.292969 23.136719 70.257812 23.085938 70.214844 22.957031 C 69.753906 22.121094 69.035156 21.574219 68.230469 21.113281 C 66.21875 19.953125 64.21875 18.78125 62.210938 17.617188 C 60.347656 16.539062 58.476562 15.46875 56.566406 14.332031 C 56.433594 14.269531 56.296875 14.207031 56.136719 14.105469 C 56.136719 14.105469 56.09375 14.09375 56.046875 14.042969 C 55.6875 13.828125 55.328125 13.609375 54.96875 13.398438 C 53.3125 12.433594 51.664062 11.453125 50 10.507812 C 48.25 9.507812 46.53125 9.578125 44.867188 10.742188 C 44.867188 10.742188 44.867188 10.746094 44.792969 10.757812 C 44.007812 11.230469 43.222656 11.703125 42.394531 12.179688 C 42.363281 12.1875 42.339844 12.203125 42.253906 12.253906 C 42.125 12.339844 41.996094 12.421875 41.828125 12.507812 C 41.828125 12.507812 41.796875 12.539062 41.722656 12.554688 C 40.714844 13.164062 39.703125 13.773438 38.703125 14.367188 C 38.703125 14.367188 38.691406 14.363281 38.613281 14.375 C 37.363281 15.113281 36.113281 15.851562 34.882812 16.605469 C 34.882812 16.605469 34.867188 16.585938 34.789062 16.597656 C 33.648438 17.265625 32.507812 17.933594 31.375 18.609375 C 31.375 18.609375 31.371094 18.601562 31.292969 18.613281 C 30.855469 18.875 30.421875 19.136719 29.964844 19.398438 C 29.964844 19.398438 29.957031 19.414062 29.882812 19.429688 C 28.734375 20.117188 27.582031 20.800781 26.382812 21.492188 C 26.347656 21.507812 26.328125 21.53125 26.246094 21.589844 C 26.152344 21.6875 26.054688 21.789062 25.960938 21.898438 C 25.960938 21.898438 25.972656 21.890625 25.902344 21.894531 C 25.855469 21.941406 25.808594 21.988281 25.714844 22.050781 C 25.683594 22.070312 25.667969 22.097656 25.605469 22.152344 C 25.585938 22.191406 25.566406 22.226562 25.558594 22.261719 C 25.558594 22.261719 25.554688 22.253906 25.488281 22.28125 C 25.429688 22.378906 25.367188 22.472656 25.308594 22.582031 C 25.308594 22.582031 25.316406 22.570312 25.246094 22.605469 C 24.65625 23.386719 24.453125 24.285156 24.453125 25.25 C 24.457031 32.519531 24.453125 39.789062 24.457031 47.0625 C 24.460938 47.332031 24.527344 47.601562 24.554688 47.957031 C 24.640625 48.21875 24.726562 48.476562 24.816406 48.808594 C 24.878906 48.902344 24.941406 48.992188 25 49.074219 C 25 49.074219 24.988281 49.078125 24.984375 49.160156 C 25.390625 49.644531 25.714844 50.253906 26.214844 50.589844 C 27.378906 51.371094 28.625 52.023438 29.839844 52.726562 C 29.839844 52.726562 29.835938 52.730469 29.878906 52.789062 C 30.144531 52.929688 30.40625 53.074219 30.667969 53.203125 C 30.667969 53.203125 30.675781 53.214844 30.707031 53.265625 C 30.746094 53.273438 30.78125 53.285156 30.820312 53.285156 C 30.820312 53.285156 30.8125 53.289062 30.851562 53.355469 C 31.535156 53.738281 32.21875 54.125 32.90625 54.5 C 32.90625 54.5 32.902344 54.503906 32.945312 54.566406 C 33.398438 54.816406 33.851562 55.066406 34.324219 55.292969 C 34.324219 55.292969 34.300781 55.3125 34.339844 55.375 C 36.363281 56.554688 38.386719 57.738281 40.410156 58.914062 C 41.851562 59.746094 43.296875 60.570312 44.746094 61.382812 C 44.746094 61.382812 44.734375 61.390625 44.769531 61.445312 C 44.828125 61.472656 44.890625 61.496094 44.953125 61.507812 C 44.953125 61.507812 44.941406 61.515625 44.984375 61.578125 C 46.480469 62.519531 48.054688 62.714844 49.640625 61.890625 C 50.835938 61.273438 51.96875 60.535156 53.09375 59.851562 C 53.09375 59.851562 53.125 59.859375 53.203125 59.839844 C 54.902344 58.839844 56.601562 57.839844 58.335938 56.839844 C 58.335938 56.839844 58.359375 56.8125 58.4375 56.800781 C 59.019531 56.449219 59.601562 56.09375 60.210938 55.746094 C 60.210938 55.746094 60.226562 55.722656 60.304688 55.710938 C 60.71875 55.457031 61.136719 55.203125 61.542969 54.941406 C 61.542969 54.941406 61.546875 54.953125 61.625 54.9375 C 62.878906 54.203125 64.128906 53.464844 65.382812 52.726562 C 65.382812 52.726562 65.382812 52.726562 65.460938 52.714844 C 66.535156 52.089844 67.625 51.488281 68.683594 50.832031 C 69.632812 50.25 70.34375 49.453125 70.542969 48.296875 C 70.542969 48.296875 70.546875 48.308594 70.601562 48.261719 C 70.613281 48.164062 70.628906 48.0625 70.648438 47.964844 C 70.648438 47.964844 70.644531 47.953125 70.679688 47.917969 Z M 70.679688 47.917969 "/>
<path style=" stroke:none;fill-rule:nonzero;fill:rgb(69.019608%,28.235294%,60%);fill-opacity:1;" d="M 56.609375 14.394531 C 58.476562 15.46875 60.347656 16.539062 62.210938 17.617188 C 64.21875 18.78125 66.21875 19.953125 68.230469 21.113281 C 69.035156 21.574219 69.753906 22.121094 70.179688 23 C 69.824219 23.210938 69.5 23.363281 69.1875 23.546875 C 66.917969 24.871094 64.652344 26.214844 62.375 27.527344 C 61.910156 27.792969 61.386719 27.960938 60.859375 28.15625 C 60.742188 28 60.652344 27.863281 60.5625 27.722656 C 56.921875 22.042969 50.121094 19.359375 43.734375 21.066406 C 41.121094 21.761719 38.867188 23.097656 36.839844 24.929688 C 36.730469 25.015625 36.664062 25.101562 36.589844 25.195312 C 36.585938 25.199219 36.574219 25.210938 36.539062 25.195312 C 36.222656 25.539062 35.941406 25.902344 35.660156 26.261719 C 35.65625 26.253906 35.667969 26.261719 35.628906 26.261719 C 35.5 26.410156 35.414062 26.554688 35.328125 26.699219 C 35.324219 26.695312 35.332031 26.699219 35.292969 26.703125 C 34.300781 27.546875 33.734375 28.613281 33.480469 29.871094 C 33.484375 29.882812 33.464844 29.90625 33.433594 29.925781 C 33.386719 30.035156 33.363281 30.125 33.335938 30.253906 C 32.355469 32.789062 32.039062 35.363281 32.347656 38.027344 C 32.585938 40.105469 33.277344 42.019531 34.199219 43.871094 C 32.054688 45.105469 29.9375 46.316406 27.832031 47.546875 C 27.019531 48.023438 26.234375 48.542969 25.390625 49.050781 C 25.226562 49.066406 25.109375 49.074219 24.988281 49.078125 C 24.988281 49.078125 25 49.074219 25 49.039062 C 24.9375 48.917969 24.875 48.828125 24.8125 48.738281 C 24.726562 48.476562 24.640625 48.21875 24.5625 47.863281 C 24.570312 47.488281 24.574219 47.210938 24.574219 46.933594 C 24.574219 39.800781 24.566406 32.671875 24.585938 25.539062 C 24.585938 24.945312 24.59375 24.226562 24.90625 23.792969 C 25.207031 23.378906 25.230469 22.992188 25.316406 22.570312 C 25.316406 22.570312 25.308594 22.582031 25.351562 22.582031 C 25.445312 22.46875 25.5 22.363281 25.554688 22.253906 C 25.554688 22.253906 25.558594 22.261719 25.582031 22.25 C 25.625 22.199219 25.644531 22.164062 25.664062 22.128906 C 25.667969 22.097656 25.683594 22.070312 25.773438 22.042969 C 25.878906 21.988281 25.925781 21.9375 25.972656 21.890625 C 25.972656 21.890625 25.960938 21.898438 26.003906 21.90625 C 26.132812 21.796875 26.226562 21.679688 26.316406 21.566406 C 26.328125 21.53125 26.347656 21.507812 26.449219 21.492188 C 26.65625 21.453125 26.804688 21.441406 26.925781 21.375 C 27.457031 21.089844 27.996094 20.820312 28.5 20.492188 C 29.003906 20.164062 29.472656 19.777344 29.957031 19.414062 C 29.957031 19.414062 29.964844 19.398438 30.015625 19.394531 C 30.640625 19.363281 31.089844 19.121094 31.371094 18.601562 C 31.371094 18.601562 31.375 18.609375 31.414062 18.609375 C 31.730469 18.527344 32.03125 18.492188 32.277344 18.359375 C 32.828125 18.066406 33.363281 17.738281 33.878906 17.390625 C 34.226562 17.152344 34.539062 16.855469 34.867188 16.585938 C 34.867188 16.585938 34.882812 16.605469 34.914062 16.609375 C 35.285156 16.734375 35.5625 16.683594 35.792969 16.359375 C 35.910156 16.1875 36.097656 16.042969 36.28125 15.9375 C 37 15.523438 37.738281 15.136719 38.453125 14.722656 C 38.566406 14.65625 38.613281 14.484375 38.691406 14.363281 C 38.691406 14.363281 38.703125 14.367188 38.742188 14.367188 C 39.539062 13.976562 40.3125 13.609375 41.054688 13.191406 C 41.335938 13.035156 41.550781 12.757812 41.796875 12.539062 C 41.796875 12.539062 41.828125 12.507812 41.894531 12.511719 C 42.082031 12.417969 42.203125 12.324219 42.328125 12.234375 C 42.339844 12.203125 42.363281 12.1875 42.460938 12.183594 C 42.742188 12.117188 42.972656 12.082031 43.171875 11.980469 C 43.628906 11.75 44.082031 11.507812 44.511719 11.230469 C 44.667969 11.128906 44.753906 10.914062 44.867188 10.746094 C 44.867188 10.746094 44.867188 10.742188 44.914062 10.746094 C 45.09375 10.707031 45.230469 10.671875 45.367188 10.628906 C 46.449219 10.28125 47.496094 9.664062 48.691406 10.273438 C 49.167969 10.515625 49.707031 10.632812 50.179688 10.882812 C 51.046875 11.335938 51.878906 11.855469 52.734375 12.335938 C 53.378906 12.699219 54.039062 13.035156 54.679688 13.40625 C 55.085938 13.644531 55.460938 13.933594 55.859375 14.183594 C 55.902344 14.210938 56.011719 14.125 56.09375 14.09375 C 56.09375 14.09375 56.136719 14.105469 56.164062 14.164062 C 56.332031 14.28125 56.46875 14.335938 56.609375 14.394531 Z M 56.609375 14.394531 "/>
<path style=" stroke:none;fill-rule:nonzero;fill:rgb(49.019608%,5.490196%,48.235294%);fill-opacity:1;" d="M 25.433594 49.046875 C 26.234375 48.542969 27.019531 48.023438 27.832031 47.546875 C 29.9375 46.316406 32.054688 45.105469 34.226562 43.894531 C 34.820312 44.652344 35.308594 45.425781 35.878906 46.144531 C 37.113281 47.699219 38.675781 48.867188 40.378906 49.894531 C 41.214844 50.691406 42.277344 50.984375 43.304688 51.253906 C 44.582031 51.585938 45.898438 51.789062 47.210938 51.90625 C 47.878906 51.964844 48.570312 51.707031 49.292969 51.570312 C 49.414062 51.546875 49.503906 51.539062 49.625 51.5625 C 50.292969 51.503906 50.925781 51.421875 51.558594 51.34375 C 51.765625 51.316406 51.988281 51.359375 52.179688 51.292969 C 53.019531 51 53.851562 50.675781 54.6875 50.359375 C 54.796875 50.316406 54.902344 50.253906 54.992188 50.179688 C 55.140625 50.058594 55.257812 49.898438 55.414062 49.785156 C 55.734375 49.550781 56.234375 49.515625 56.300781 48.953125 C 56.375 48.898438 56.433594 48.867188 56.511719 48.867188 C 57.210938 48.382812 57.980469 47.953125 58.550781 47.335938 C 59.507812 46.304688 60.542969 45.3125 61.144531 43.972656 C 62.09375 44.5 63.007812 45.019531 63.917969 45.539062 C 65.34375 46.363281 66.777344 47.179688 68.195312 48.015625 C 68.738281 48.335938 69.25 48.714844 69.777344 49.105469 C 69.742188 49.320312 69.761719 49.554688 69.65625 49.664062 C 68.746094 50.597656 67.609375 51.207031 66.496094 51.859375 C 66.097656 52.09375 65.753906 52.433594 65.382812 52.726562 C 65.382812 52.726562 65.382812 52.726562 65.335938 52.726562 C 64.980469 52.808594 64.632812 52.828125 64.359375 52.984375 C 63.542969 53.457031 62.746094 53.96875 61.953125 54.488281 C 61.789062 54.597656 61.679688 54.792969 61.546875 54.953125 C 61.546875 54.953125 61.542969 54.941406 61.503906 54.941406 C 60.972656 55.074219 60.425781 55.117188 60.226562 55.722656 C 60.226562 55.722656 60.210938 55.746094 60.152344 55.738281 C 59.535156 56.023438 58.980469 56.3125 58.429688 56.613281 C 58.382812 56.636719 58.382812 56.742188 58.359375 56.8125 C 58.359375 56.8125 58.335938 56.839844 58.273438 56.835938 C 57.304688 57.296875 56.398438 57.75 55.496094 58.226562 C 55.097656 58.433594 54.703125 58.65625 54.332031 58.914062 C 53.914062 59.207031 53.527344 59.542969 53.125 59.859375 C 53.125 59.859375 53.09375 59.851562 53.066406 59.839844 C 52.8125 59.832031 52.425781 59.753906 52.382812 59.84375 C 52.132812 60.390625 51.566406 60.457031 51.152344 60.734375 C 50.460938 61.195312 49.769531 61.726562 49 61.980469 C 48.109375 62.277344 47.140625 62.453125 46.203125 61.914062 C 45.828125 61.699219 45.363281 61.644531 44.941406 61.515625 C 44.941406 61.515625 44.953125 61.507812 44.945312 61.476562 C 44.867188 61.429688 44.800781 61.410156 44.734375 61.390625 C 44.734375 61.390625 44.746094 61.382812 44.734375 61.351562 C 44.058594 60.847656 43.410156 60.34375 42.71875 59.910156 C 41.9375 59.417969 41.117188 58.988281 40.316406 58.527344 C 38.710938 57.605469 37.113281 56.667969 35.492188 55.773438 C 35.128906 55.574219 34.84375 55.070312 34.300781 55.3125 C 34.300781 55.3125 34.324219 55.292969 34.3125 55.265625 C 33.96875 54.734375 33.457031 54.574219 32.902344 54.503906 C 32.902344 54.503906 32.90625 54.5 32.902344 54.464844 C 32.773438 54.339844 32.601562 54.277344 32.53125 54.15625 C 32.152344 53.460938 31.414062 53.519531 30.8125 53.289062 C 30.8125 53.289062 30.820312 53.285156 30.804688 53.261719 C 30.753906 53.230469 30.714844 53.222656 30.675781 53.214844 C 30.675781 53.214844 30.667969 53.203125 30.679688 53.164062 C 30.59375 52.585938 30.160156 52.78125 29.835938 52.730469 C 29.835938 52.730469 29.839844 52.726562 29.835938 52.6875 C 29.761719 52.558594 29.707031 52.441406 29.613281 52.382812 C 28.519531 51.714844 27.378906 51.105469 26.332031 50.367188 C 25.921875 50.082031 25.253906 49.808594 25.433594 49.046875 Z M 25.433594 49.046875 "/>
<path style=" stroke:none;fill-rule:nonzero;fill:rgb(58.039216%,17.254902%,52.941176%);fill-opacity:1;" d="M 69.773438 49.066406 C 69.25 48.714844 68.738281 48.335938 68.195312 48.015625 C 66.777344 47.179688 65.34375 46.363281 63.917969 45.539062 C 63.007812 45.019531 62.09375 44.5 61.144531 43.933594 C 60.765625 43.195312 60.109375 43.03125 59.453125 42.871094 C 59.457031 42.867188 59.453125 42.875 59.441406 42.847656 C 59.390625 42.804688 59.355469 42.789062 59.328125 42.769531 C 59.339844 42.765625 59.339844 42.789062 59.324219 42.753906 C 59.230469 42.695312 59.160156 42.675781 59.066406 42.65625 C 59.042969 42.660156 59.011719 42.625 59 42.605469 C 58.957031 42.566406 58.929688 42.546875 58.902344 42.539062 C 58.90625 42.539062 58.902344 42.546875 58.902344 42.507812 C 58.730469 42.054688 58.40625 41.957031 58.011719 42.003906 C 58.019531 42.003906 58.015625 42.015625 58.007812 41.976562 C 57.546875 41.632812 57.097656 41.324219 56.640625 41.027344 C 56.617188 41.015625 56.53125 41.09375 56.449219 41.125 C 56.40625 41.105469 56.394531 41.09375 56.375 41.039062 C 56.203125 40.925781 56.042969 40.847656 55.867188 40.777344 C 55.855469 40.78125 55.835938 40.757812 55.832031 40.71875 C 55.578125 40.558594 55.328125 40.4375 55.074219 40.320312 C 55.074219 40.320312 55.070312 40.3125 55.066406 40.277344 C 54.953125 40.195312 54.84375 40.152344 54.703125 40.105469 C 54.621094 40.066406 54.570312 40.027344 54.515625 39.953125 C 54.332031 39.867188 54.152344 39.816406 53.953125 39.734375 C 53.414062 39.402344 52.894531 39.097656 52.375 38.796875 C 51.035156 38.023438 49.683594 37.257812 48.351562 36.46875 C 48.179688 36.371094 48.074219 36.164062 47.953125 35.96875 C 48.113281 35.824219 48.246094 35.695312 48.398438 35.605469 C 50.335938 34.472656 52.273438 33.347656 54.242188 32.203125 C 56.421875 30.945312 58.570312 29.707031 60.710938 28.460938 C 60.796875 28.414062 60.832031 28.269531 60.890625 28.171875 C 61.386719 27.960938 61.910156 27.792969 62.375 27.527344 C 64.652344 26.214844 66.917969 24.871094 69.1875 23.546875 C 69.5 23.363281 69.824219 23.210938 70.183594 23.039062 C 70.257812 23.085938 70.292969 23.136719 70.320312 23.269531 C 70.324219 23.570312 70.308594 23.796875 70.335938 24.011719 C 70.429688 24.695312 70.628906 25.371094 70.632812 26.054688 C 70.65625 32.992188 70.644531 39.933594 70.648438 46.871094 C 70.648438 47.085938 70.703125 47.300781 70.730469 47.515625 C 70.730469 47.578125 70.726562 47.636719 70.691406 47.761719 C 70.65625 47.867188 70.652344 47.910156 70.644531 47.953125 C 70.644531 47.953125 70.648438 47.964844 70.617188 47.988281 C 70.570312 48.113281 70.558594 48.210938 70.546875 48.308594 C 70.546875 48.308594 70.542969 48.296875 70.511719 48.3125 C 70.410156 48.464844 70.363281 48.628906 70.257812 48.730469 C 70.121094 48.867188 69.9375 48.957031 69.773438 49.066406 M 60.007812 38.65625 C 60.007812 38.65625 60.015625 38.644531 60.019531 38.722656 C 60.414062 38.777344 60.804688 38.828125 61.210938 38.953125 C 61.207031 39.003906 61.203125 39.050781 61.132812 39.109375 C 61.164062 39.363281 60.726562 39.671875 61.210938 39.875 C 61.210938 39.875 61.226562 39.863281 61.226562 39.945312 C 61.328125 40.015625 61.425781 40.136719 61.535156 40.144531 C 61.746094 40.164062 61.960938 40.105469 62.175781 40.101562 C 62.796875 40.085938 62.917969 39.953125 62.976562 39.332031 C 62.992188 39.175781 63.105469 38.960938 63.230469 38.898438 C 63.433594 38.804688 63.683594 38.804688 63.917969 38.777344 C 64.226562 38.738281 64.386719 38.859375 64.402344 39.199219 C 64.414062 39.390625 64.515625 39.574219 64.625 39.839844 C 65.148438 40.066406 65.664062 40.117188 66.238281 39.746094 C 66.308594 39.457031 66.300781 39.101562 66.472656 38.90625 C 66.625 38.734375 66.976562 38.742188 67.3125 38.605469 C 67.3125 38.117188 67.3125 37.628906 67.3125 37.078125 C 66.921875 37.078125 66.546875 37.078125 66.167969 37.078125 C 66.167969 36.433594 66.167969 35.855469 66.167969 35.214844 C 66.570312 35.214844 66.941406 35.214844 67.316406 35.214844 C 67.316406 34.667969 67.316406 34.183594 67.316406 33.644531 C 66.898438 33.644531 66.527344 33.644531 66.117188 33.644531 C 66.117188 33.222656 66.117188 32.859375 66.117188 32.476562 C 65.597656 32.476562 65.117188 32.476562 64.578125 32.476562 C 64.578125 32.890625 64.578125 33.269531 64.578125 33.640625 C 63.941406 33.640625 63.367188 33.640625 62.75 33.640625 C 62.75 33.367188 62.777344 33.125 62.738281 32.894531 C 62.714844 32.730469 62.601562 32.578125 62.503906 32.339844 C 62.117188 32.308594 61.617188 32.117188 61.371094 32.289062 C 61.066406 32.503906 60.96875 33.019531 60.78125 33.40625 C 60.496094 33.410156 60.109375 33.125 59.992188 33.78125 C 60 34.261719 60.007812 34.742188 60.023438 35.304688 C 60.128906 35.34375 60.257812 35.449219 60.335938 35.417969 C 60.929688 35.1875 60.988281 35.554688 60.992188 35.992188 C 60.996094 36.121094 60.980469 36.25 60.996094 36.375 C 61.039062 36.742188 60.925781 36.929688 60.523438 36.898438 C 60.390625 36.886719 60.253906 37 60.058594 37.085938 C 60.039062 37.09375 60.019531 37.101562 59.9375 37.117188 C 59.902344 37.144531 59.863281 37.175781 59.828125 37.207031 C 59.871094 37.246094 59.917969 37.289062 59.984375 37.421875 C 59.976562 37.613281 59.96875 37.804688 59.886719 38.019531 C 59.789062 38.261719 59.609375 38.519531 60.007812 38.65625 Z M 60.007812 38.65625 "/>
<path style=" stroke:none;fill-rule:nonzero;fill:rgb(46.27451%,13.72549%,45.098039%);fill-opacity:1;" d="M 34.320312 55.34375 C 34.84375 55.070312 35.128906 55.574219 35.492188 55.773438 C 37.113281 56.667969 38.710938 57.605469 40.316406 58.527344 C 41.117188 58.988281 41.9375 59.417969 42.71875 59.910156 C 43.410156 60.34375 44.058594 60.847656 44.734375 61.359375 C 43.296875 60.570312 41.851562 59.746094 40.410156 58.914062 C 38.386719 57.738281 36.363281 56.554688 34.320312 55.34375 Z M 34.320312 55.34375 "/>
<path style=" stroke:none;fill-rule:nonzero;fill:rgb(64.313725%,36.078431%,58.039216%);fill-opacity:1;" d="M 56.070312 14.066406 C 56.011719 14.125 55.902344 14.210938 55.859375 14.183594 C 55.460938 13.933594 55.085938 13.644531 54.679688 13.40625 C 54.039062 13.035156 53.378906 12.699219 52.734375 12.335938 C 51.878906 11.855469 51.046875 11.335938 50.179688 10.882812 C 49.707031 10.632812 49.167969 10.515625 48.691406 10.273438 C 47.496094 9.664062 46.449219 10.28125 45.367188 10.628906 C 45.230469 10.671875 45.09375 10.707031 44.914062 10.746094 C 46.53125 9.578125 48.25 9.507812 50 10.507812 C 51.664062 11.453125 53.3125 12.433594 54.96875 13.398438 C 55.328125 13.609375 55.6875 13.828125 56.070312 14.066406 Z M 56.070312 14.066406 "/>
<path style=" stroke:none;fill-rule:nonzero;fill:rgb(63.529412%,31.764706%,56.470588%);fill-opacity:1;" d="M 25.28125 22.589844 C 25.230469 22.992188 25.207031 23.378906 24.90625 23.792969 C 24.59375 24.226562 24.585938 24.945312 24.585938 25.539062 C 24.566406 32.671875 24.574219 39.800781 24.574219 46.933594 C 24.574219 47.210938 24.570312 47.488281 24.566406 47.816406 C 24.527344 47.601562 24.460938 47.332031 24.457031 47.0625 C 24.453125 39.789062 24.457031 32.519531 24.453125 25.25 C 24.453125 24.285156 24.65625 23.386719 25.28125 22.589844 Z M 25.28125 22.589844 "/>
<path style=" stroke:none;fill-rule:nonzero;fill:rgb(53.333333%,20.784314%,45.098039%);fill-opacity:1;" d="M 70.742188 47.464844 C 70.703125 47.300781 70.648438 47.085938 70.648438 46.871094 C 70.644531 39.933594 70.65625 32.992188 70.632812 26.054688 C 70.628906 25.371094 70.429688 24.695312 70.335938 24.011719 C 70.308594 23.796875 70.324219 23.570312 70.320312 23.300781 C 70.46875 23.8125 70.738281 24.375 70.742188 24.941406 C 70.765625 32.429688 70.753906 39.921875 70.742188 47.464844 Z M 70.742188 47.464844 "/>
<path style=" stroke:none;fill-rule:nonzero;fill:rgb(46.27451%,13.72549%,45.098039%);fill-opacity:1;" d="M 44.960938 61.546875 C 45.363281 61.644531 45.828125 61.699219 46.203125 61.914062 C 47.140625 62.453125 48.109375 62.277344 49 61.980469 C 49.769531 61.726562 50.460938 61.195312 51.152344 60.734375 C 51.566406 60.457031 52.132812 60.390625 52.382812 59.84375 C 52.425781 59.753906 52.8125 59.832031 53.082031 59.839844 C 51.96875 60.535156 50.835938 61.273438 49.640625 61.890625 C 48.054688 62.714844 46.480469 62.519531 44.960938 61.546875 Z M 44.960938 61.546875 "/>
<path style=" stroke:none;fill-rule:nonzero;fill:rgb(46.27451%,13.72549%,45.098039%);fill-opacity:1;" d="M 69.777344 49.105469 C 69.9375 48.957031 70.121094 48.867188 70.257812 48.730469 C 70.363281 48.628906 70.410156 48.464844 70.519531 48.316406 C 70.34375 49.453125 69.632812 50.25 68.683594 50.832031 C 67.625 51.488281 66.535156 52.089844 65.421875 52.722656 C 65.753906 52.433594 66.097656 52.09375 66.496094 51.859375 C 67.609375 51.207031 68.746094 50.597656 69.65625 49.664062 C 69.761719 49.554688 69.742188 49.320312 69.777344 49.105469 Z M 69.777344 49.105469 "/>
<path style=" stroke:none;fill-rule:nonzero;fill:rgb(46.27451%,13.72549%,45.098039%);fill-opacity:1;" d="M 25.390625 49.050781 C 25.253906 49.808594 25.921875 50.082031 26.332031 50.367188 C 27.378906 51.105469 28.519531 51.714844 29.613281 52.382812 C 29.707031 52.441406 29.761719 52.558594 29.835938 52.6875 C 28.625 52.023438 27.378906 51.371094 26.214844 50.589844 C 25.714844 50.253906 25.390625 49.644531 24.988281 49.121094 C 25.109375 49.074219 25.226562 49.066406 25.390625 49.050781 Z M 25.390625 49.050781 "/>
<path style=" stroke:none;fill-rule:nonzero;fill:rgb(46.27451%,13.72549%,45.098039%);fill-opacity:1;" d="M 53.164062 59.847656 C 53.527344 59.542969 53.914062 59.207031 54.332031 58.914062 C 54.703125 58.65625 55.097656 58.433594 55.496094 58.226562 C 56.398438 57.75 57.304688 57.296875 58.253906 56.835938 C 56.601562 57.839844 54.902344 58.839844 53.164062 59.847656 Z M 53.164062 59.847656 "/>
<path style=" stroke:none;fill-rule:nonzero;fill:rgb(46.27451%,13.72549%,45.098039%);fill-opacity:1;" d="M 61.585938 54.945312 C 61.679688 54.792969 61.789062 54.597656 61.953125 54.488281 C 62.746094 53.96875 63.542969 53.457031 64.359375 52.984375 C 64.632812 52.828125 64.980469 52.808594 65.335938 52.726562 C 64.128906 53.464844 62.878906 54.203125 61.585938 54.945312 Z M 61.585938 54.945312 "/>
<path style=" stroke:none;fill-rule:nonzero;fill:rgb(64.313725%,36.078431%,58.039216%);fill-opacity:1;" d="M 38.652344 14.371094 C 38.613281 14.484375 38.566406 14.65625 38.453125 14.722656 C 37.738281 15.136719 37 15.523438 36.28125 15.9375 C 36.097656 16.042969 35.910156 16.1875 35.792969 16.359375 C 35.5625 16.683594 35.285156 16.734375 34.902344 16.601562 C 36.113281 15.851562 37.363281 15.113281 38.652344 14.371094 Z M 38.652344 14.371094 "/>
<path style=" stroke:none;fill-rule:nonzero;fill:rgb(64.313725%,36.078431%,58.039216%);fill-opacity:1;" d="M 34.828125 16.589844 C 34.539062 16.855469 34.226562 17.152344 33.878906 17.390625 C 33.363281 17.738281 32.828125 18.066406 32.277344 18.359375 C 32.03125 18.492188 31.730469 18.527344 31.410156 18.605469 C 32.507812 17.933594 33.648438 17.265625 34.828125 16.589844 Z M 34.828125 16.589844 "/>
<path style=" stroke:none;fill-rule:nonzero;fill:rgb(64.313725%,36.078431%,58.039216%);fill-opacity:1;" d="M 29.921875 19.421875 C 29.472656 19.777344 29.003906 20.164062 28.5 20.492188 C 27.996094 20.820312 27.457031 21.089844 26.925781 21.375 C 26.804688 21.441406 26.65625 21.453125 26.476562 21.488281 C 27.582031 20.800781 28.734375 20.117188 29.921875 19.421875 Z M 29.921875 19.421875 "/>
<path style=" stroke:none;fill-rule:nonzero;fill:rgb(64.313725%,36.078431%,58.039216%);fill-opacity:1;" d="M 41.757812 12.546875 C 41.550781 12.757812 41.335938 13.035156 41.054688 13.191406 C 40.3125 13.609375 39.539062 13.976562 38.738281 14.371094 C 39.703125 13.773438 40.714844 13.164062 41.757812 12.546875 Z M 41.757812 12.546875 "/>
<path style=" stroke:none;fill-rule:nonzero;fill:rgb(64.313725%,36.078431%,58.039216%);fill-opacity:1;" d="M 44.832031 10.753906 C 44.753906 10.914062 44.667969 11.128906 44.511719 11.230469 C 44.082031 11.507812 43.628906 11.75 43.171875 11.980469 C 42.972656 12.082031 42.742188 12.117188 42.480469 12.179688 C 43.222656 11.703125 44.007812 11.230469 44.832031 10.753906 Z M 44.832031 10.753906 "/>
<path style=" stroke:none;fill-rule:nonzero;fill:rgb(46.27451%,13.72549%,45.098039%);fill-opacity:1;" d="M 30.832031 53.324219 C 31.414062 53.519531 32.152344 53.460938 32.53125 54.15625 C 32.601562 54.277344 32.773438 54.339844 32.902344 54.46875 C 32.21875 54.125 31.535156 53.738281 30.832031 53.324219 Z M 30.832031 53.324219 "/>
<path style=" stroke:none;fill-rule:nonzero;fill:rgb(46.27451%,13.72549%,45.098039%);fill-opacity:1;" d="M 58.398438 56.804688 C 58.382812 56.742188 58.382812 56.636719 58.429688 56.613281 C 58.980469 56.3125 59.535156 56.023438 60.136719 55.734375 C 59.601562 56.09375 59.019531 56.449219 58.398438 56.804688 Z M 58.398438 56.804688 "/>
<path style=" stroke:none;fill-rule:nonzero;fill:rgb(64.313725%,36.078431%,58.039216%);fill-opacity:1;" d="M 31.332031 18.609375 C 31.089844 19.121094 30.640625 19.363281 30.027344 19.394531 C 30.421875 19.136719 30.855469 18.875 31.332031 18.609375 Z M 31.332031 18.609375 "/>
<path style=" stroke:none;fill-rule:nonzero;fill:rgb(46.27451%,13.72549%,45.098039%);fill-opacity:1;" d="M 32.921875 54.535156 C 33.457031 54.574219 33.96875 54.734375 34.300781 55.277344 C 33.851562 55.066406 33.398438 54.816406 32.921875 54.535156 Z M 32.921875 54.535156 "/>
<path style=" stroke:none;fill-rule:nonzero;fill:rgb(46.27451%,13.72549%,45.098039%);fill-opacity:1;" d="M 60.265625 55.71875 C 60.425781 55.117188 60.972656 55.074219 61.507812 54.945312 C 61.136719 55.203125 60.71875 55.457031 60.265625 55.71875 Z M 60.265625 55.71875 "/>
<path style=" stroke:none;fill-rule:nonzero;fill:rgb(46.27451%,13.72549%,45.098039%);fill-opacity:1;" d="M 29.859375 52.757812 C 30.160156 52.78125 30.59375 52.585938 30.683594 53.171875 C 30.40625 53.074219 30.144531 52.929688 29.859375 52.757812 Z M 29.859375 52.757812 "/>
<path style=" stroke:none;fill-rule:nonzero;fill:rgb(63.529412%,31.764706%,56.470588%);fill-opacity:1;" d="M 26.28125 21.578125 C 26.226562 21.679688 26.132812 21.796875 26 21.898438 C 26.054688 21.789062 26.152344 21.6875 26.28125 21.578125 Z M 26.28125 21.578125 "/>
<path style=" stroke:none;fill-rule:nonzero;fill:rgb(46.27451%,13.72549%,45.098039%);fill-opacity:1;" d="M 24.8125 48.773438 C 24.875 48.828125 24.9375 48.917969 25.003906 49.046875 C 24.941406 48.992188 24.878906 48.902344 24.8125 48.773438 Z M 24.8125 48.773438 "/>
<path style=" stroke:none;fill-rule:nonzero;fill:rgb(64.313725%,36.078431%,58.039216%);fill-opacity:1;" d="M 42.289062 12.242188 C 42.203125 12.324219 42.082031 12.417969 41.914062 12.507812 C 41.996094 12.421875 42.125 12.339844 42.289062 12.242188 Z M 42.289062 12.242188 "/>
<path style=" stroke:none;fill-rule:nonzero;fill:rgb(64.313725%,36.078431%,58.039216%);fill-opacity:1;" d="M 56.589844 14.363281 C 56.46875 14.335938 56.332031 14.28125 56.175781 14.183594 C 56.296875 14.207031 56.433594 14.269531 56.589844 14.363281 Z M 56.589844 14.363281 "/>
<path style=" stroke:none;fill-rule:nonzero;fill:rgb(63.529412%,31.764706%,56.470588%);fill-opacity:1;" d="M 25.519531 22.269531 C 25.5 22.363281 25.445312 22.46875 25.351562 22.574219 C 25.367188 22.472656 25.429688 22.378906 25.519531 22.269531 Z M 25.519531 22.269531 "/>
<path style=" stroke:none;fill-rule:nonzero;fill:rgb(46.27451%,13.72549%,45.098039%);fill-opacity:1;" d="M 70.574219 48.285156 C 70.558594 48.210938 70.570312 48.113281 70.613281 47.992188 C 70.628906 48.0625 70.613281 48.164062 70.574219 48.285156 Z M 70.574219 48.285156 "/>
<path style=" stroke:none;fill-rule:nonzero;fill:rgb(63.529412%,31.764706%,56.470588%);fill-opacity:1;" d="M 25.9375 21.890625 C 25.925781 21.9375 25.878906 21.988281 25.796875 22.035156 C 25.808594 21.988281 25.855469 21.941406 25.9375 21.890625 Z M 25.9375 21.890625 "/>
<path style=" stroke:none;fill-rule:nonzero;fill:rgb(46.27451%,13.72549%,45.098039%);fill-opacity:1;" d="M 44.75 61.417969 C 44.800781 61.410156 44.867188 61.429688 44.941406 61.484375 C 44.890625 61.496094 44.828125 61.472656 44.75 61.417969 Z M 44.75 61.417969 "/>
<path style=" stroke:none;fill-rule:nonzero;fill:rgb(53.333333%,20.784314%,45.098039%);fill-opacity:1;" d="M 70.660156 47.9375 C 70.652344 47.910156 70.65625 47.867188 70.667969 47.800781 C 70.675781 47.824219 70.675781 47.871094 70.660156 47.9375 Z M 70.660156 47.9375 "/>
<path style=" stroke:none;fill-rule:nonzero;fill:rgb(46.27451%,13.72549%,45.098039%);fill-opacity:1;" d="M 30.691406 53.238281 C 30.714844 53.222656 30.753906 53.230469 30.804688 53.265625 C 30.78125 53.285156 30.746094 53.273438 30.691406 53.238281 Z M 30.691406 53.238281 "/>
<path style=" stroke:none;fill-rule:nonzero;fill:rgb(63.529412%,31.764706%,56.470588%);fill-opacity:1;" d="M 25.636719 22.140625 C 25.644531 22.164062 25.625 22.199219 25.578125 22.25 C 25.566406 22.226562 25.585938 22.191406 25.636719 22.140625 Z M 25.636719 22.140625 "/>
<path style=" stroke:none;fill-rule:nonzero;fill:rgb(99.607843%,99.215686%,99.607843%);fill-opacity:1;" d="M 56.382812 41.078125 C 56.394531 41.09375 56.40625 41.105469 56.472656 41.152344 C 57.019531 41.464844 57.519531 41.738281 58.015625 42.015625 C 58.015625 42.015625 58.019531 42.003906 58.03125 42.035156 C 58.328125 42.230469 58.617188 42.386719 58.902344 42.546875 C 58.902344 42.546875 58.90625 42.539062 58.910156 42.5625 C 58.941406 42.621094 58.972656 42.636719 59.011719 42.625 C 59.011719 42.625 59.042969 42.660156 59.085938 42.6875 C 59.199219 42.738281 59.269531 42.765625 59.339844 42.789062 C 59.339844 42.789062 59.339844 42.765625 59.339844 42.800781 C 59.375 42.847656 59.414062 42.859375 59.453125 42.875 C 59.453125 42.875 59.457031 42.867188 59.476562 42.898438 C 59.976562 43.21875 60.457031 43.503906 60.96875 43.808594 C 60.832031 44.039062 60.726562 44.230469 60.613281 44.414062 C 59.53125 46.167969 58.097656 47.585938 56.492188 48.839844 C 56.433594 48.867188 56.375 48.898438 56.261719 48.960938 C 54.199219 50.367188 51.980469 51.175781 49.589844 51.535156 C 49.503906 51.539062 49.414062 51.546875 49.246094 51.5625 C 48.125 51.570312 47.082031 51.621094 46.050781 51.550781 C 44.042969 51.410156 42.171875 50.738281 40.375 49.855469 C 38.675781 48.867188 37.113281 47.699219 35.878906 46.144531 C 35.308594 45.425781 34.820312 44.652344 34.265625 43.878906 C 33.277344 42.019531 32.585938 40.105469 32.347656 38.027344 C 32.039062 35.363281 32.355469 32.789062 33.359375 30.230469 C 33.414062 30.078125 33.4375 29.992188 33.464844 29.90625 C 33.464844 29.90625 33.484375 29.882812 33.511719 29.84375 C 34.136719 28.769531 34.734375 27.734375 35.332031 26.699219 C 35.332031 26.699219 35.324219 26.695312 35.359375 26.683594 C 35.484375 26.535156 35.574219 26.398438 35.667969 26.261719 C 35.667969 26.261719 35.65625 26.253906 35.695312 26.242188 C 36.011719 25.894531 36.292969 25.554688 36.574219 25.210938 C 36.574219 25.210938 36.585938 25.199219 36.621094 25.1875 C 36.734375 25.09375 36.808594 25.011719 36.882812 24.929688 C 38.867188 23.097656 41.121094 21.761719 43.734375 21.066406 C 50.121094 19.359375 56.921875 22.042969 60.5625 27.722656 C 60.652344 27.863281 60.742188 28 60.859375 28.15625 C 60.832031 28.269531 60.796875 28.414062 60.710938 28.460938 C 58.570312 29.707031 56.421875 30.945312 54.230469 32.164062 C 51.230469 27.308594 44.621094 27.136719 41.390625 31.601562 C 39.644531 34.023438 39.464844 37.574219 40.984375 39.921875 C 41.441406 40.527344 41.886719 41.09375 42.347656 41.691406 C 42.570312 41.890625 42.777344 42.058594 42.992188 42.214844 C 42.996094 42.210938 42.984375 42.21875 43 42.25 C 43.171875 42.386719 43.328125 42.488281 43.492188 42.59375 C 43.496094 42.59375 43.507812 42.601562 43.527344 42.628906 C 44.285156 42.964844 45.015625 43.277344 45.78125 43.605469 C 45.863281 43.628906 45.917969 43.628906 46.007812 43.652344 C 47.691406 44.015625 49.28125 43.875 50.828125 43.097656 C 50.910156 43.0625 50.964844 43.03125 51.054688 42.992188 C 51.632812 42.605469 52.171875 42.222656 52.714844 41.835938 C 52.722656 41.828125 52.738281 41.8125 52.769531 41.796875 C 52.914062 41.65625 53.03125 41.527344 53.15625 41.394531 C 53.164062 41.386719 53.179688 41.367188 53.207031 41.351562 C 53.523438 40.957031 53.796875 40.570312 54.105469 40.210938 C 54.199219 40.097656 54.378906 40.058594 54.519531 39.988281 C 54.570312 40.027344 54.621094 40.066406 54.722656 40.132812 C 54.871094 40.214844 54.972656 40.261719 55.070312 40.3125 C 55.070312 40.3125 55.074219 40.320312 55.097656 40.347656 C 55.359375 40.503906 55.597656 40.628906 55.835938 40.757812 C 55.835938 40.757812 55.855469 40.78125 55.890625 40.808594 C 56.078125 40.914062 56.230469 40.996094 56.382812 41.078125 Z M 56.382812 41.078125 "/>
<path style=" stroke:none;fill-rule:nonzero;fill:rgb(64.313725%,36.078431%,58.039216%);fill-opacity:1;" d="M 35.292969 26.703125 C 34.734375 27.734375 34.136719 28.769531 33.507812 29.828125 C 33.734375 28.613281 34.300781 27.546875 35.292969 26.703125 Z M 35.292969 26.703125 "/>
<path style=" stroke:none;fill-rule:nonzero;fill:rgb(64.313725%,36.078431%,58.039216%);fill-opacity:1;" d="M 36.539062 25.195312 C 36.292969 25.554688 36.011719 25.894531 35.695312 26.25 C 35.941406 25.902344 36.222656 25.539062 36.539062 25.195312 Z M 36.539062 25.195312 "/>
<path style=" stroke:none;fill-rule:nonzero;fill:rgb(64.313725%,36.078431%,58.039216%);fill-opacity:1;" d="M 35.628906 26.261719 C 35.574219 26.398438 35.484375 26.535156 35.359375 26.6875 C 35.414062 26.554688 35.5 26.410156 35.628906 26.261719 Z M 35.628906 26.261719 "/>
<path style=" stroke:none;fill-rule:nonzero;fill:rgb(64.313725%,36.078431%,58.039216%);fill-opacity:1;" d="M 36.839844 24.929688 C 36.808594 25.011719 36.734375 25.09375 36.628906 25.183594 C 36.664062 25.101562 36.730469 25.015625 36.839844 24.929688 Z M 36.839844 24.929688 "/>
<path style=" stroke:none;fill-rule:nonzero;fill:rgb(64.313725%,36.078431%,58.039216%);fill-opacity:1;" d="M 33.433594 29.925781 C 33.4375 29.992188 33.414062 30.078125 33.363281 30.1875 C 33.363281 30.125 33.386719 30.035156 33.433594 29.925781 Z M 33.433594 29.925781 "/>
<path style=" stroke:none;fill-rule:nonzero;fill:rgb(46.27451%,13.72549%,45.098039%);fill-opacity:1;" d="M 40.378906 49.894531 C 42.171875 50.738281 44.042969 51.410156 46.050781 51.550781 C 47.082031 51.621094 48.125 51.570312 49.210938 51.585938 C 48.570312 51.707031 47.878906 51.964844 47.210938 51.90625 C 45.898438 51.789062 44.582031 51.585938 43.304688 51.253906 C 42.277344 50.984375 41.214844 50.691406 40.378906 49.894531 Z M 40.378906 49.894531 "/>
<path style=" stroke:none;fill-rule:nonzero;fill:rgb(46.27451%,13.72549%,45.098039%);fill-opacity:1;" d="M 56.511719 48.867188 C 58.097656 47.585938 59.53125 46.167969 60.613281 44.414062 C 60.726562 44.230469 60.832031 44.039062 60.96875 43.808594 C 60.457031 43.503906 59.976562 43.21875 59.472656 42.902344 C 60.109375 43.03125 60.765625 43.195312 61.105469 43.925781 C 60.542969 45.3125 59.507812 46.304688 58.550781 47.335938 C 57.980469 47.953125 57.210938 48.382812 56.511719 48.867188 Z M 56.511719 48.867188 "/>
<path style=" stroke:none;fill-rule:nonzero;fill:rgb(46.27451%,13.72549%,45.098039%);fill-opacity:1;" d="M 49.625 51.5625 C 51.980469 51.175781 54.199219 50.367188 56.246094 48.988281 C 56.234375 49.515625 55.734375 49.550781 55.414062 49.785156 C 55.257812 49.898438 55.140625 50.058594 54.992188 50.179688 C 54.902344 50.253906 54.796875 50.316406 54.6875 50.359375 C 53.851562 50.675781 53.019531 51 52.179688 51.292969 C 51.988281 51.359375 51.765625 51.316406 51.558594 51.34375 C 50.925781 51.421875 50.292969 51.503906 49.625 51.5625 Z M 49.625 51.5625 "/>
<path style=" stroke:none;fill-rule:nonzero;fill:rgb(69.019608%,28.235294%,60%);fill-opacity:1;" d="M 40.972656 39.882812 C 39.464844 37.574219 39.644531 34.023438 41.390625 31.601562 C 44.621094 27.136719 51.230469 27.308594 54.199219 32.1875 C 52.273438 33.347656 50.335938 34.472656 48.398438 35.605469 C 48.246094 35.695312 48.113281 35.824219 47.914062 35.972656 C 46.984375 36.492188 46.105469 36.964844 45.238281 37.453125 C 43.8125 38.257812 42.394531 39.074219 40.972656 39.882812 Z M 40.972656 39.882812 "/>
<path style=" stroke:none;fill-rule:nonzero;fill:rgb(49.019608%,5.882353%,48.235294%);fill-opacity:1;" d="M 40.984375 39.921875 C 42.394531 39.074219 43.8125 38.257812 45.238281 37.453125 C 46.105469 36.964844 46.984375 36.492188 47.898438 36.007812 C 48.074219 36.164062 48.179688 36.371094 48.351562 36.46875 C 49.683594 37.257812 51.035156 38.023438 52.375 38.796875 C 52.894531 39.097656 53.414062 39.402344 53.949219 39.773438 C 53.746094 40.171875 53.511719 40.492188 53.316406 40.832031 C 53.230469 40.988281 53.222656 41.1875 53.179688 41.367188 C 53.179688 41.367188 53.164062 41.386719 53.117188 41.371094 C 52.789062 41.382812 52.621094 41.492188 52.738281 41.8125 C 52.738281 41.8125 52.722656 41.828125 52.675781 41.8125 C 51.9375 41.984375 51.503906 42.53125 51.015625 42.996094 C 50.964844 43.03125 50.910156 43.0625 50.8125 43.066406 C 50.617188 43.023438 50.429688 42.949219 50.332031 43.011719 C 49.253906 43.710938 48.046875 43.640625 46.851562 43.640625 C 46.558594 43.640625 46.261719 43.636719 45.96875 43.632812 C 45.917969 43.628906 45.863281 43.628906 45.773438 43.570312 C 45.53125 43.40625 45.34375 43.28125 45.136719 43.203125 C 44.597656 42.992188 44.050781 42.800781 43.507812 42.601562 C 43.507812 42.601562 43.496094 42.59375 43.507812 42.550781 C 43.339844 42.410156 43.164062 42.3125 42.984375 42.21875 C 42.984375 42.21875 42.996094 42.210938 42.996094 42.175781 C 42.769531 41.980469 42.550781 41.820312 42.332031 41.65625 C 41.886719 41.09375 41.441406 40.527344 40.984375 39.921875 Z M 40.984375 39.921875 "/>
<path style=" stroke:none;fill-rule:nonzero;fill:rgb(99.215686%,97.254902%,99.215686%);fill-opacity:1;" d="M 62.53125 32.417969 C 62.601562 32.578125 62.714844 32.730469 62.738281 32.894531 C 62.777344 33.125 62.75 33.367188 62.75 33.640625 C 63.367188 33.640625 63.941406 33.640625 64.578125 33.640625 C 64.578125 33.269531 64.578125 32.890625 64.578125 32.476562 C 65.117188 32.476562 65.597656 32.476562 66.117188 32.476562 C 66.117188 32.859375 66.117188 33.222656 66.117188 33.644531 C 66.527344 33.644531 66.898438 33.644531 67.316406 33.644531 C 67.316406 34.183594 67.316406 34.667969 67.316406 35.214844 C 66.941406 35.214844 66.570312 35.214844 66.167969 35.214844 C 66.167969 35.855469 66.167969 36.433594 66.167969 37.078125 C 66.546875 37.078125 66.921875 37.078125 67.3125 37.078125 C 67.3125 37.628906 67.3125 38.117188 67.226562 38.628906 C 66.824219 38.648438 66.507812 38.648438 66.15625 38.648438 C 66.15625 39.050781 66.15625 39.40625 66.15625 39.761719 C 65.664062 40.117188 65.148438 40.066406 64.613281 39.757812 C 64.597656 39.34375 64.597656 39.011719 64.597656 38.671875 C 63.957031 38.671875 63.378906 38.671875 62.746094 38.671875 C 62.746094 39.074219 62.746094 39.449219 62.746094 39.863281 C 62.199219 39.863281 61.710938 39.863281 61.226562 39.863281 C 61.226562 39.863281 61.210938 39.875 61.214844 39.824219 C 61.210938 39.546875 61.203125 39.324219 61.195312 39.101562 C 61.203125 39.050781 61.207031 39.003906 61.210938 38.871094 C 60.808594 38.738281 60.414062 38.691406 60.015625 38.644531 C 60.015625 38.644531 60.007812 38.65625 60.007812 38.605469 C 59.988281 38.367188 59.976562 38.183594 59.960938 37.996094 C 59.96875 37.804688 59.976562 37.613281 59.984375 37.339844 C 59.988281 37.207031 59.992188 37.15625 59.996094 37.109375 C 60.019531 37.101562 60.039062 37.09375 60.136719 37.085938 C 60.535156 37.085938 60.855469 37.085938 61.183594 37.085938 C 61.183594 36.433594 61.183594 35.851562 61.183594 35.222656 C 60.769531 35.222656 60.390625 35.222656 60.011719 35.222656 C 60.007812 34.742188 60 34.261719 60.054688 33.730469 C 60.46875 33.679688 60.824219 33.679688 61.234375 33.679688 C 61.234375 33.234375 61.234375 32.859375 61.234375 32.417969 C 61.703125 32.417969 62.117188 32.417969 62.53125 32.417969 M 64.605469 35.53125 C 64.53125 35.429688 64.464844 35.242188 64.386719 35.238281 C 63.851562 35.214844 63.316406 35.226562 62.78125 35.226562 C 62.78125 35.886719 62.78125 36.460938 62.78125 37.050781 C 63.402344 37.050781 63.984375 37.050781 64.605469 37.050781 C 64.605469 36.550781 64.605469 36.09375 64.605469 35.53125 Z M 64.605469 35.53125 "/>
<path style=" stroke:none;fill-rule:nonzero;fill:rgb(53.72549%,25.490196%,49.019608%);fill-opacity:1;" d="M 61.226562 39.90625 C 61.710938 39.863281 62.199219 39.863281 62.746094 39.863281 C 62.746094 39.449219 62.746094 39.074219 62.746094 38.671875 C 63.378906 38.671875 63.957031 38.671875 64.597656 38.671875 C 64.597656 39.011719 64.597656 39.34375 64.585938 39.71875 C 64.515625 39.574219 64.414062 39.390625 64.402344 39.199219 C 64.386719 38.859375 64.226562 38.738281 63.917969 38.777344 C 63.683594 38.804688 63.433594 38.804688 63.230469 38.898438 C 63.105469 38.960938 62.992188 39.175781 62.976562 39.332031 C 62.917969 39.953125 62.796875 40.085938 62.175781 40.101562 C 61.960938 40.105469 61.746094 40.164062 61.535156 40.144531 C 61.425781 40.136719 61.328125 40.015625 61.226562 39.90625 Z M 61.226562 39.90625 "/>
<path style=" stroke:none;fill-rule:nonzero;fill:rgb(56.470588%,26.27451%,51.764706%);fill-opacity:1;" d="M 62.515625 32.378906 C 62.117188 32.417969 61.703125 32.417969 61.234375 32.417969 C 61.234375 32.859375 61.234375 33.234375 61.234375 33.679688 C 60.824219 33.679688 60.46875 33.679688 60.0625 33.679688 C 60.109375 33.125 60.496094 33.410156 60.78125 33.40625 C 60.96875 33.019531 61.066406 32.503906 61.371094 32.289062 C 61.617188 32.117188 62.117188 32.308594 62.515625 32.378906 Z M 62.515625 32.378906 "/>
<path style=" stroke:none;fill-rule:nonzero;fill:rgb(51.372549%,23.137255%,47.843137%);fill-opacity:1;" d="M 60.019531 35.261719 C 60.390625 35.222656 60.769531 35.222656 61.183594 35.222656 C 61.183594 35.851562 61.183594 36.433594 61.183594 37.085938 C 60.855469 37.085938 60.535156 37.085938 60.167969 37.070312 C 60.253906 37 60.390625 36.886719 60.523438 36.898438 C 60.925781 36.929688 61.039062 36.742188 60.996094 36.375 C 60.980469 36.25 60.996094 36.121094 60.992188 35.992188 C 60.988281 35.554688 60.929688 35.1875 60.335938 35.417969 C 60.257812 35.449219 60.128906 35.34375 60.019531 35.261719 Z M 60.019531 35.261719 "/>
<path style=" stroke:none;fill-rule:nonzero;fill:rgb(46.27451%,13.72549%,45.098039%);fill-opacity:1;" d="M 53.207031 41.351562 C 53.222656 41.1875 53.230469 40.988281 53.316406 40.832031 C 53.511719 40.492188 53.746094 40.171875 53.96875 39.804688 C 54.152344 39.816406 54.332031 39.867188 54.515625 39.953125 C 54.378906 40.058594 54.199219 40.097656 54.105469 40.210938 C 53.796875 40.570312 53.523438 40.957031 53.207031 41.351562 Z M 53.207031 41.351562 "/>
<path style=" stroke:none;fill-rule:nonzero;fill:rgb(46.27451%,13.72549%,45.098039%);fill-opacity:1;" d="M 58.007812 41.976562 C 57.519531 41.738281 57.019531 41.464844 56.5 41.15625 C 56.53125 41.09375 56.617188 41.015625 56.640625 41.027344 C 57.097656 41.324219 57.546875 41.632812 58.007812 41.976562 Z M 58.007812 41.976562 "/>
<path style=" stroke:none;fill-rule:nonzero;fill:rgb(51.372549%,23.137255%,47.843137%);fill-opacity:1;" d="M 66.199219 39.753906 C 66.15625 39.40625 66.15625 39.050781 66.15625 38.648438 C 66.507812 38.648438 66.824219 38.648438 67.191406 38.660156 C 66.976562 38.742188 66.625 38.734375 66.472656 38.90625 C 66.300781 39.101562 66.308594 39.457031 66.199219 39.753906 Z M 66.199219 39.753906 "/>
<path style=" stroke:none;fill-rule:nonzero;fill:rgb(46.27451%,13.72549%,45.098039%);fill-opacity:1;" d="M 58.902344 42.507812 C 58.617188 42.386719 58.328125 42.230469 58.023438 42.035156 C 58.40625 41.957031 58.730469 42.054688 58.902344 42.507812 Z M 58.902344 42.507812 "/>
<path style=" stroke:none;fill-rule:nonzero;fill:rgb(51.372549%,23.137255%,47.843137%);fill-opacity:1;" d="M 60.019531 38.683594 C 60.414062 38.691406 60.808594 38.738281 61.203125 38.832031 C 60.804688 38.828125 60.414062 38.777344 60.019531 38.683594 Z M 60.019531 38.683594 "/>
<path style=" stroke:none;fill-rule:nonzero;fill:rgb(46.27451%,13.72549%,45.098039%);fill-opacity:1;" d="M 55.832031 40.71875 C 55.597656 40.628906 55.359375 40.503906 55.101562 40.347656 C 55.328125 40.4375 55.578125 40.558594 55.832031 40.71875 Z M 55.832031 40.71875 "/>
<path style=" stroke:none;fill-rule:nonzero;fill:rgb(51.372549%,23.137255%,47.843137%);fill-opacity:1;" d="M 59.925781 38.007812 C 59.976562 38.183594 59.988281 38.367188 60.011719 38.601562 C 59.609375 38.519531 59.789062 38.261719 59.925781 38.007812 Z M 59.925781 38.007812 "/>
<path style=" stroke:none;fill-rule:nonzero;fill:rgb(53.72549%,25.490196%,49.019608%);fill-opacity:1;" d="M 61.164062 39.105469 C 61.203125 39.324219 61.210938 39.546875 61.222656 39.816406 C 60.726562 39.671875 61.164062 39.363281 61.164062 39.105469 Z M 61.164062 39.105469 "/>
<path style=" stroke:none;fill-rule:nonzero;fill:rgb(46.27451%,13.72549%,45.098039%);fill-opacity:1;" d="M 55.066406 40.277344 C 54.972656 40.261719 54.871094 40.214844 54.753906 40.136719 C 54.84375 40.152344 54.953125 40.195312 55.066406 40.277344 Z M 55.066406 40.277344 "/>
<path style=" stroke:none;fill-rule:nonzero;fill:rgb(46.27451%,13.72549%,45.098039%);fill-opacity:1;" d="M 56.375 41.039062 C 56.230469 40.996094 56.078125 40.914062 55.90625 40.804688 C 56.042969 40.847656 56.203125 40.925781 56.375 41.039062 Z M 56.375 41.039062 "/>
<path style=" stroke:none;fill-rule:nonzero;fill:rgb(51.372549%,23.137255%,47.843137%);fill-opacity:1;" d="M 59.96875 37.113281 C 59.992188 37.15625 59.988281 37.207031 59.972656 37.292969 C 59.917969 37.289062 59.871094 37.246094 59.828125 37.207031 C 59.863281 37.175781 59.902344 37.144531 59.96875 37.113281 Z M 59.96875 37.113281 "/>
<path style=" stroke:none;fill-rule:nonzero;fill:rgb(46.27451%,13.72549%,45.098039%);fill-opacity:1;" d="M 59.324219 42.753906 C 59.269531 42.765625 59.199219 42.738281 59.109375 42.683594 C 59.160156 42.675781 59.230469 42.695312 59.324219 42.753906 Z M 59.324219 42.753906 "/>
<path style=" stroke:none;fill-rule:nonzero;fill:rgb(46.27451%,13.72549%,45.098039%);fill-opacity:1;" d="M 59 42.605469 C 58.972656 42.636719 58.941406 42.621094 58.90625 42.5625 C 58.929688 42.546875 58.957031 42.566406 59 42.605469 Z M 59 42.605469 "/>
<path style=" stroke:none;fill-rule:nonzero;fill:rgb(46.27451%,13.72549%,45.098039%);fill-opacity:1;" d="M 59.441406 42.847656 C 59.414062 42.859375 59.375 42.847656 59.328125 42.800781 C 59.355469 42.789062 59.390625 42.804688 59.441406 42.847656 Z M 59.441406 42.847656 "/>
<path style=" stroke:none;fill-rule:nonzero;fill:rgb(46.27451%,13.72549%,45.098039%);fill-opacity:1;" d="M 46.007812 43.652344 C 46.261719 43.636719 46.558594 43.640625 46.851562 43.640625 C 48.046875 43.640625 49.253906 43.710938 50.332031 43.011719 C 50.429688 42.949219 50.617188 43.023438 50.78125 43.066406 C 49.28125 43.875 47.691406 44.015625 46.007812 43.652344 Z M 46.007812 43.652344 "/>
<path style=" stroke:none;fill-rule:nonzero;fill:rgb(46.27451%,13.72549%,45.098039%);fill-opacity:1;" d="M 43.527344 42.628906 C 44.050781 42.800781 44.597656 42.992188 45.136719 43.203125 C 45.34375 43.28125 45.53125 43.40625 45.738281 43.550781 C 45.015625 43.277344 44.285156 42.964844 43.527344 42.628906 Z M 43.527344 42.628906 "/>
<path style=" stroke:none;fill-rule:nonzero;fill:rgb(46.27451%,13.72549%,45.098039%);fill-opacity:1;" d="M 51.054688 42.992188 C 51.503906 42.53125 51.9375 41.984375 52.667969 41.820312 C 52.171875 42.222656 51.632812 42.605469 51.054688 42.992188 Z M 51.054688 42.992188 "/>
<path style=" stroke:none;fill-rule:nonzero;fill:rgb(46.27451%,13.72549%,45.098039%);fill-opacity:1;" d="M 42.347656 41.691406 C 42.550781 41.820312 42.769531 41.980469 42.988281 42.183594 C 42.777344 42.058594 42.570312 41.890625 42.347656 41.691406 Z M 42.347656 41.691406 "/>
<path style=" stroke:none;fill-rule:nonzero;fill:rgb(46.27451%,13.72549%,45.098039%);fill-opacity:1;" d="M 43 42.25 C 43.164062 42.3125 43.339844 42.410156 43.5 42.550781 C 43.328125 42.488281 43.171875 42.386719 43 42.25 Z M 43 42.25 "/>
<path style=" stroke:none;fill-rule:nonzero;fill:rgb(46.27451%,13.72549%,45.098039%);fill-opacity:1;" d="M 52.769531 41.796875 C 52.621094 41.492188 52.789062 41.382812 53.109375 41.378906 C 53.03125 41.527344 52.914062 41.65625 52.769531 41.796875 Z M 52.769531 41.796875 "/>
<path style=" stroke:none;fill-rule:nonzero;fill:rgb(58.431373%,21.960784%,52.54902%);fill-opacity:1;" d="M 64.605469 35.585938 C 64.605469 36.09375 64.605469 36.550781 64.605469 37.050781 C 63.984375 37.050781 63.402344 37.050781 62.78125 37.050781 C 62.78125 36.460938 62.78125 35.886719 62.78125 35.226562 C 63.316406 35.226562 63.851562 35.214844 64.386719 35.238281 C 64.464844 35.242188 64.53125 35.429688 64.605469 35.585938 Z M 64.605469 35.585938 "/>
</g>
</svg>
