<?xml version="1.0" encoding="UTF-8"?>
<svg xmlns="http://www.w3.org/2000/svg" xmlns:xlink="http://www.w3.org/1999/xlink" width="96px" height="96px" viewBox="0 0 96 96" version="1.1">
<g id="surface1">
<path style=" stroke:none;fill-rule:nonzero;fill:rgb(31.372549%,15.294118%,49.411765%);fill-opacity:1;" d="M 45.046875 0.046875 C 62.042969 0.046875 79.039062 0.046875 96.046875 0.046875 C 96.046875 17.03125 96.046875 34.019531 96.027344 51.023438 C 95.992188 51.070312 95.960938 51.09375 95.960938 51.117188 C 95.925781 51.574219 95.898438 52.03125 95.859375 52.484375 C 95.816406 53 95.78125 53.515625 95.714844 54.027344 C 95.621094 54.722656 95.515625 55.417969 95.390625 56.105469 C 95.226562 57.027344 95.066406 57.953125 94.855469 58.867188 C 94.414062 60.773438 93.878906 62.65625 93.183594 64.484375 C 92.699219 65.753906 92.191406 67.011719 91.632812 68.246094 C 91.148438 69.308594 90.605469 70.34375 90.035156 71.359375 C 89.410156 72.46875 88.742188 73.554688 88.054688 74.621094 C 87.523438 75.441406 86.945312 76.234375 86.359375 77.015625 C 85.851562 77.691406 85.300781 78.34375 84.761719 78.996094 C 84.453125 79.371094 84.132812 79.738281 83.800781 80.097656 C 83.34375 80.59375 82.875 81.078125 82.40625 81.550781 C 82.566406 81.3125 82.429688 81.179688 82.277344 81.027344 C 73.867188 72.625 65.460938 64.214844 57.054688 55.808594 C 56.980469 55.734375 56.925781 55.640625 56.882812 55.550781 C 58.792969 55.550781 60.675781 55.550781 62.578125 55.550781 C 62.578125 54.539062 62.578125 53.550781 62.578125 52.546875 C 62.484375 52.546875 62.398438 52.546875 62.316406 52.546875 C 59.746094 52.546875 57.179688 52.546875 54.609375 52.546875 C 54.3125 52.542969 54.015625 52.539062 53.71875 52.519531 C 53.695312 52.472656 53.679688 52.4375 53.652344 52.410156 C 52.933594 51.6875 52.210938 50.96875 51.488281 50.246094 C 51.449219 50.207031 51.386719 50.183594 51.332031 50.132812 C 51.324219 47.769531 51.324219 45.429688 51.324219 43.070312 C 54.621094 43.070312 57.886719 43.070312 61.171875 43.070312 C 61.171875 42.101562 61.171875 41.152344 61.171875 40.175781 C 57.882812 40.175781 54.609375 40.175781 51.339844 40.175781 C 51.339844 37.136719 51.339844 34.125 51.339844 31.089844 C 54.867188 31.089844 58.378906 31.089844 61.898438 31.089844 C 61.898438 30.121094 61.898438 29.171875 61.898438 28.214844 C 57.277344 28.214844 52.671875 28.214844 48.046875 28.214844 C 48.046875 28.320312 48.046875 28.410156 48.046875 28.503906 C 48.046875 34.476562 48.046875 40.453125 48.046875 46.429688 C 48.046875 46.53125 48.042969 46.632812 48.023438 46.730469 C 47.9375 46.671875 47.863281 46.617188 47.796875 46.550781 C 45.601562 44.355469 43.40625 42.164062 41.210938 39.96875 C 41.140625 39.902344 41.050781 39.851562 40.96875 39.773438 C 40.960938 39.636719 40.957031 39.519531 40.957031 39.402344 C 40.957031 35.769531 40.957031 32.136719 40.957031 28.507812 C 40.957031 28.414062 40.957031 28.324219 40.957031 28.21875 C 39.882812 28.21875 38.832031 28.21875 37.75 28.21875 C 37.75 28.324219 37.75 28.425781 37.75 28.523438 C 37.75 30.820312 37.75 33.117188 37.75 35.414062 C 37.75 35.75 37.746094 36.085938 37.726562 36.417969 C 37.625 36.351562 37.535156 36.289062 37.460938 36.214844 C 30.019531 28.773438 22.578125 21.332031 15.136719 13.894531 C 14.96875 13.726562 14.824219 13.480469 14.53125 13.671875 C 14.847656 13.363281 15.152344 13.058594 15.46875 12.773438 C 16.121094 12.1875 16.769531 11.605469 17.4375 11.039062 C 18.058594 10.519531 18.6875 10.003906 19.335938 9.527344 C 20.125 8.949219 20.929688 8.390625 21.75 7.859375 C 22.652344 7.277344 23.558594 6.703125 24.496094 6.183594 C 25.5625 5.589844 26.65625 5.042969 27.753906 4.503906 C 28.410156 4.179688 29.078125 3.875 29.765625 3.617188 C 31.1875 3.089844 32.613281 2.566406 34.058594 2.105469 C 35.15625 1.753906 36.285156 1.488281 37.402344 1.214844 C 39.011719 0.824219 40.640625 0.542969 42.289062 0.375 C 43.160156 0.285156 44.03125 0.21875 44.898438 0.136719 C 44.949219 0.128906 44.996094 0.078125 45.046875 0.046875 M 75.632812 55.546875 C 75.785156 55.546875 75.933594 55.546875 76.113281 55.546875 C 76.113281 47.375 76.113281 39.242188 76.113281 31.089844 C 78.769531 31.089844 81.398438 31.089844 84.035156 31.089844 C 84.035156 30.121094 84.035156 29.171875 84.035156 28.21875 C 77.703125 28.21875 71.382812 28.21875 65.0625 28.21875 C 65.0625 29.183594 65.0625 30.132812 65.0625 31.101562 C 67.679688 31.101562 70.277344 31.101562 72.898438 31.101562 C 72.898438 39.257812 72.898438 47.390625 72.898438 55.546875 C 73.808594 55.546875 74.695312 55.546875 75.632812 55.546875 Z M 75.632812 55.546875 "/>
<path style=" stroke:none;fill-rule:nonzero;fill:rgb(42.745098%,25.882353%,61.176471%);fill-opacity:1;" d="M 56.859375 55.554688 C 56.925781 55.640625 56.980469 55.734375 57.054688 55.808594 C 65.460938 64.214844 73.867188 72.625 82.277344 81.027344 C 82.429688 81.179688 82.566406 81.3125 82.402344 81.5625 C 82.320312 81.660156 82.25 81.730469 82.160156 81.800781 C 82.089844 81.878906 82.039062 81.957031 81.984375 82.035156 C 81.984375 82.03125 81.988281 82.035156 81.976562 82.039062 C 81.953125 82.050781 81.945312 82.0625 81.941406 82.078125 C 81.941406 82.082031 81.9375 82.082031 81.925781 82.085938 C 81.902344 82.097656 81.894531 82.109375 81.894531 82.125 C 81.894531 82.128906 81.890625 82.128906 81.878906 82.132812 C 81.855469 82.140625 81.847656 82.152344 81.828125 82.171875 C 81.328125 82.660156 80.839844 83.140625 80.335938 83.621094 C 80.296875 83.652344 80.273438 83.6875 80.25 83.722656 C 80.25 83.71875 80.253906 83.722656 80.234375 83.710938 C 80.179688 83.761719 80.144531 83.824219 80.105469 83.894531 C 80.082031 83.921875 80.0625 83.9375 80.027344 83.933594 C 79.929688 83.976562 79.832031 84.03125 79.753906 84.101562 C 79.371094 84.425781 79.003906 84.761719 78.617188 85.078125 C 76.539062 86.789062 74.335938 88.324219 72.003906 89.667969 C 68.628906 91.613281 65.070312 93.125 61.328125 94.207031 C 59.539062 94.722656 57.71875 95.136719 55.878906 95.425781 C 54.871094 95.585938 53.851562 95.703125 52.835938 95.808594 C 51.988281 95.898438 51.132812 95.9375 50.28125 96 C 50.207031 96.007812 50.136719 96.03125 50.0625 96.046875 C 48.734375 96.046875 47.402344 96.046875 46.039062 96.03125 C 45.640625 95.996094 45.277344 95.980469 44.914062 95.953125 C 44.203125 95.894531 43.488281 95.847656 42.777344 95.761719 C 41.734375 95.636719 40.6875 95.511719 39.648438 95.332031 C 37.855469 95.019531 36.089844 94.597656 34.34375 94.078125 C 30.949219 93.066406 27.703125 91.699219 24.613281 89.964844 C 21.628906 88.289062 18.851562 86.320312 16.285156 84.050781 C 14.683594 82.636719 13.183594 81.128906 11.78125 79.519531 C 10.273438 77.789062 8.902344 75.957031 7.660156 74.027344 C 4.972656 69.84375 2.949219 65.363281 1.691406 60.550781 C 1.292969 59.019531 0.976562 57.464844 0.671875 55.910156 C 0.507812 55.058594 0.417969 54.191406 0.332031 53.332031 C 0.230469 52.300781 0.171875 51.269531 0.09375 50.238281 C 0.0859375 50.179688 0.0625 50.121094 0.046875 50.0625 C 0.046875 48.734375 0.046875 47.402344 0.0585938 46.039062 C 0.078125 45.957031 0.0898438 45.910156 0.09375 45.863281 C 0.171875 44.832031 0.226562 43.800781 0.335938 42.773438 C 0.445312 41.726562 0.582031 40.679688 0.761719 39.644531 C 1.054688 37.96875 1.445312 36.3125 1.917969 34.679688 C 3.53125 29.117188 6.070312 24.015625 9.535156 19.378906 C 10.316406 18.332031 11.179688 17.34375 12.003906 16.324219 C 12.066406 16.25 12.097656 16.144531 12.144531 16.042969 C 12.167969 16.015625 12.1875 16 12.222656 16.003906 C 12.28125 15.960938 12.328125 15.898438 12.375 15.839844 C 12.375 15.84375 12.371094 15.839844 12.386719 15.851562 C 12.425781 15.820312 12.449219 15.78125 12.472656 15.722656 C 12.722656 15.46875 12.964844 15.226562 13.210938 14.980469 C 13.449219 14.738281 13.6875 14.496094 13.9375 14.246094 C 13.957031 14.230469 13.960938 14.21875 13.964844 14.203125 C 13.964844 14.199219 13.96875 14.195312 13.980469 14.195312 C 14.003906 14.183594 14.011719 14.171875 14.011719 14.15625 C 14.011719 14.152344 14.015625 14.152344 14.027344 14.148438 C 14.050781 14.136719 14.058594 14.121094 14.058594 14.109375 C 14.0625 14.109375 14.058594 14.105469 14.074219 14.105469 C 14.160156 14.042969 14.226562 13.980469 14.300781 13.902344 C 14.382812 13.820312 14.453125 13.753906 14.527344 13.683594 C 14.824219 13.480469 14.96875 13.726562 15.136719 13.894531 C 22.578125 21.332031 30.019531 28.773438 37.460938 36.214844 C 37.535156 36.289062 37.625 36.351562 37.734375 36.433594 C 37.757812 36.566406 37.753906 36.683594 37.753906 36.800781 C 37.75 40.527344 37.742188 44.253906 37.75 47.980469 C 37.753906 48.851562 37.824219 49.722656 37.867188 50.59375 C 37.882812 50.863281 37.902344 51.132812 37.917969 51.40625 C 37.707031 51.144531 37.550781 50.871094 37.382812 50.605469 C 32.652344 43.1875 27.917969 35.773438 23.191406 28.355469 C 23.109375 28.230469 23.019531 28.203125 22.882812 28.207031 C 21.640625 28.210938 20.398438 28.207031 19.160156 28.207031 C 19.089844 28.207031 19.023438 28.214844 18.945312 28.21875 C 18.945312 37.332031 18.945312 46.429688 18.945312 55.535156 C 20.007812 55.535156 21.054688 55.535156 22.125 55.535156 C 22.125 55.429688 22.125 55.339844 22.125 55.246094 C 22.125 50.324219 22.125 45.402344 22.125 40.484375 C 22.125 38.367188 22.128906 36.25 22.121094 34.132812 C 22.117188 33.761719 22.050781 33.390625 22.035156 33.023438 C 22.019531 32.691406 22.03125 32.363281 22.03125 31.980469 C 22.09375 32.078125 22.136719 32.140625 22.171875 32.210938 C 22.453125 32.738281 22.691406 33.296875 23.015625 33.796875 C 27.640625 40.992188 32.277344 48.183594 36.90625 55.375 C 36.988281 55.5 37.070312 55.550781 37.222656 55.550781 C 38.394531 55.542969 39.566406 55.546875 40.738281 55.546875 C 40.804688 55.546875 40.875 55.539062 40.957031 55.53125 C 40.957031 55.421875 40.957031 55.328125 40.957031 55.238281 C 40.957031 50.191406 40.957031 45.144531 40.957031 40.097656 C 40.957031 39.996094 40.964844 39.898438 40.972656 39.796875 C 41.050781 39.851562 41.140625 39.902344 41.210938 39.96875 C 43.40625 42.164062 45.601562 44.355469 47.796875 46.550781 C 47.863281 46.617188 47.9375 46.671875 48.027344 46.753906 C 48.046875 49.699219 48.046875 52.617188 48.046875 55.546875 C 50.332031 55.546875 52.578125 55.546875 54.824219 55.546875 C 55.503906 55.546875 56.183594 55.550781 56.859375 55.554688 M 64.089844 74.476562 C 64.335938 74.355469 64.582031 74.234375 64.820312 74.101562 C 64.878906 74.070312 64.960938 73.996094 64.960938 73.941406 C 64.972656 73.53125 64.96875 73.125 64.96875 72.671875 C 64.847656 72.757812 64.765625 72.820312 64.683594 72.871094 C 63.667969 73.519531 62.582031 73.855469 61.378906 73.589844 C 60.625 73.425781 60.039062 73.011719 59.679688 72.308594 C 59.398438 71.761719 59.257812 71.183594 59.246094 70.542969 C 61.386719 70.542969 63.5 70.542969 65.574219 70.542969 C 65.574219 69.949219 65.625 69.375 65.566406 68.8125 C 65.472656 67.941406 65.144531 67.144531 64.550781 66.488281 C 63.617188 65.453125 62.386719 65.328125 61.117188 65.519531 C 59.828125 65.71875 58.886719 66.5 58.324219 67.65625 C 57.429688 69.496094 57.46875 71.347656 58.488281 73.140625 C 59.023438 74.078125 59.882812 74.617188 60.929688 74.796875 C 61.988281 74.972656 63.046875 74.910156 64.089844 74.476562 M 29.816406 68.507812 C 29.796875 69.222656 29.847656 69.929688 30.054688 70.617188 C 30.652344 72.621094 31.878906 74.03125 33.917969 74.660156 C 34.574219 74.863281 35.25 74.886719 35.933594 74.882812 C 37.042969 74.878906 38.097656 74.664062 39.105469 74.199219 C 39.160156 74.175781 39.222656 74.105469 39.226562 74.054688 C 39.234375 73.640625 39.230469 73.222656 39.230469 72.773438 C 39.117188 72.828125 39.035156 72.867188 38.957031 72.90625 C 37.746094 73.523438 36.457031 73.742188 35.125 73.535156 C 33.589844 73.300781 32.519531 72.417969 31.859375 71.015625 C 31.441406 70.121094 31.339844 69.179688 31.371094 68.207031 C 31.414062 66.945312 31.792969 65.792969 32.617188 64.828125 C 33.71875 63.539062 35.132812 63.054688 36.820312 63.21875 C 37.652344 63.300781 38.421875 63.515625 39.164062 63.878906 C 39.183594 63.886719 39.207031 63.878906 39.25 63.878906 C 39.25 63.460938 39.242188 63.050781 39.257812 62.636719 C 39.261719 62.472656 39.203125 62.40625 39.054688 62.351562 C 38 61.957031 36.902344 61.875 35.789062 61.914062 C 34.621094 61.957031 33.542969 62.300781 32.589844 62.976562 C 30.714844 64.3125 29.835938 66.175781 29.816406 68.507812 M 49.554688 68.125 C 49.140625 66.949219 48.394531 66.09375 47.214844 65.636719 C 46.5 65.363281 45.757812 65.332031 45.019531 65.402344 C 43.625 65.53125 42.484375 66.125 41.71875 67.339844 C 40.96875 68.527344 40.835938 69.832031 41.039062 71.1875 C 41.179688 72.113281 41.570312 72.9375 42.230469 73.605469 C 43.242188 74.632812 44.488281 75.03125 45.910156 74.859375 C 47.59375 74.65625 48.777344 73.757812 49.4375 72.214844 C 50 70.890625 49.96875 69.527344 49.554688 68.125 M 54.4375 66.179688 C 54.074219 66.527344 53.832031 66.953125 53.613281 67.40625 C 53.613281 66.832031 53.613281 66.257812 53.613281 65.683594 C 53.109375 65.683594 52.628906 65.683594 52.140625 65.683594 C 52.140625 68.679688 52.140625 71.667969 52.140625 74.65625 C 52.640625 74.65625 53.128906 74.65625 53.625 74.65625 C 53.625 74.566406 53.625 74.5 53.625 74.429688 C 53.625 72.914062 53.625 71.398438 53.625 69.882812 C 53.621094 69.113281 53.820312 68.402344 54.222656 67.75 C 54.734375 66.910156 55.765625 66.601562 56.652344 67.023438 C 56.707031 67.046875 56.761719 67.0625 56.832031 67.089844 C 56.832031 66.625 56.835938 66.191406 56.824219 65.753906 C 56.820312 65.695312 56.71875 65.605469 56.648438 65.59375 C 55.828125 65.421875 55.082031 65.542969 54.4375 66.179688 M 11.042969 51.652344 C 10.957031 51.65625 10.867188 51.640625 10.785156 51.660156 C 9.679688 51.902344 9.007812 52.882812 9.035156 53.792969 C 9.0625 54.707031 9.484375 55.367188 10.300781 55.738281 C 11.105469 56.101562 11.878906 55.964844 12.542969 55.382812 C 13.234375 54.777344 13.429688 54.003906 13.164062 53.136719 C 12.894531 52.234375 12.058594 51.65625 11.042969 51.652344 Z M 11.042969 51.652344 "/>
<path style=" stroke:none;fill-rule:nonzero;fill:rgb(0%,0%,0%);fill-opacity:1;" d="M 80.042969 83.953125 C 80.0625 83.9375 80.082031 83.921875 80.117188 83.882812 C 80.171875 83.816406 80.210938 83.769531 80.253906 83.722656 C 80.253906 83.722656 80.25 83.71875 80.265625 83.714844 C 80.304688 83.683594 80.332031 83.652344 80.355469 83.625 C 80.839844 83.140625 81.328125 82.660156 81.839844 82.171875 C 81.875 82.15625 81.882812 82.140625 81.890625 82.128906 C 81.890625 82.128906 81.894531 82.128906 81.90625 82.125 C 81.929688 82.109375 81.9375 82.097656 81.9375 82.082031 C 81.9375 82.082031 81.941406 82.082031 81.953125 82.078125 C 81.976562 82.0625 81.984375 82.050781 81.988281 82.035156 C 81.988281 82.035156 81.984375 82.03125 82 82.027344 C 82.070312 81.949219 82.125 81.875 82.175781 81.800781 C 82.25 81.730469 82.320312 81.660156 82.402344 81.582031 C 82.875 81.078125 83.34375 80.59375 83.800781 80.097656 C 84.132812 79.738281 84.453125 79.371094 84.761719 78.996094 C 85.300781 78.34375 85.851562 77.691406 86.359375 77.015625 C 86.945312 76.234375 87.523438 75.441406 88.054688 74.621094 C 88.742188 73.554688 89.410156 72.46875 90.035156 71.359375 C 90.605469 70.34375 91.148438 69.308594 91.632812 68.246094 C 92.191406 67.011719 92.699219 65.753906 93.183594 64.484375 C 93.878906 62.65625 94.414062 60.773438 94.855469 58.867188 C 95.066406 57.953125 95.226562 57.027344 95.390625 56.105469 C 95.515625 55.417969 95.621094 54.722656 95.714844 54.027344 C 95.78125 53.515625 95.816406 53 95.859375 52.484375 C 95.898438 52.03125 95.925781 51.574219 95.960938 51.117188 C 95.960938 51.09375 95.992188 51.070312 96.027344 51.046875 C 96.046875 66.042969 96.046875 81.039062 96.046875 96.046875 C 83.5 96.046875 70.949219 96.046875 58.367188 96.03125 C 58.363281 95.996094 58.390625 95.964844 58.421875 95.957031 C 59.292969 95.710938 60.167969 95.488281 61.03125 95.222656 C 61.867188 94.960938 62.699219 94.675781 63.519531 94.355469 C 64.707031 93.890625 65.902344 93.433594 67.050781 92.882812 C 68.398438 92.238281 69.71875 91.535156 71.007812 90.785156 C 72.167969 90.109375 73.277344 89.351562 74.394531 88.609375 C 75.722656 87.726562 76.957031 86.71875 78.164062 85.679688 C 78.808594 85.125 79.417969 84.53125 80.042969 83.953125 Z M 80.042969 83.953125 "/>
<path style=" stroke:none;fill-rule:nonzero;fill:rgb(0%,0%,0%);fill-opacity:1;" d="M 12.207031 15.984375 C 12.1875 16 12.167969 16.015625 12.132812 16.054688 C 11.902344 16.308594 11.683594 16.539062 11.46875 16.773438 C 10.964844 17.335938 10.460938 17.894531 9.96875 18.464844 C 9.53125 18.976562 9.09375 19.488281 8.691406 20.027344 C 7.683594 21.371094 6.6875 22.722656 5.847656 24.175781 C 5.15625 25.371094 4.457031 26.558594 3.816406 27.777344 C 3.347656 28.667969 2.949219 29.597656 2.554688 30.523438 C 2.160156 31.457031 1.800781 32.402344 1.449219 33.351562 C 0.929688 34.765625 0.5 36.207031 0.136719 37.664062 C 0.128906 37.695312 0.078125 37.710938 0.046875 37.734375 C 0.046875 25.175781 0.046875 12.617188 0.046875 0.046875 C 15.03125 0.046875 30.019531 0.046875 45.023438 0.046875 C 44.996094 0.078125 44.949219 0.128906 44.898438 0.136719 C 44.03125 0.21875 43.160156 0.285156 42.289062 0.375 C 40.640625 0.542969 39.011719 0.824219 37.402344 1.214844 C 36.285156 1.488281 35.15625 1.753906 34.058594 2.105469 C 32.613281 2.566406 31.1875 3.089844 29.765625 3.617188 C 29.078125 3.875 28.410156 4.179688 27.753906 4.503906 C 26.65625 5.042969 25.5625 5.589844 24.496094 6.183594 C 23.558594 6.703125 22.652344 7.277344 21.75 7.859375 C 20.929688 8.390625 20.125 8.949219 19.335938 9.527344 C 18.6875 10.003906 18.058594 10.519531 17.4375 11.039062 C 16.769531 11.605469 16.121094 12.1875 15.46875 12.773438 C 15.152344 13.058594 14.847656 13.363281 14.53125 13.671875 C 14.453125 13.753906 14.382812 13.820312 14.285156 13.90625 C 14.195312 13.980469 14.125 14.042969 14.058594 14.105469 C 14.058594 14.105469 14.0625 14.109375 14.050781 14.113281 C 14.023438 14.121094 14.015625 14.136719 14.015625 14.152344 C 14.015625 14.152344 14.011719 14.152344 14 14.15625 C 13.972656 14.167969 13.96875 14.179688 13.96875 14.195312 C 13.96875 14.195312 13.964844 14.199219 13.953125 14.203125 C 13.9375 14.222656 13.933594 14.238281 13.929688 14.25 C 13.6875 14.496094 13.449219 14.738281 13.210938 14.980469 C 12.964844 15.226562 12.722656 15.46875 12.460938 15.730469 C 12.417969 15.78125 12.394531 15.8125 12.371094 15.839844 C 12.371094 15.839844 12.375 15.84375 12.359375 15.847656 C 12.296875 15.894531 12.253906 15.941406 12.207031 15.984375 Z M 12.207031 15.984375 "/>
<path style=" stroke:none;fill-rule:nonzero;fill:rgb(0%,0%,0%);fill-opacity:1;" d="M 35.0625 96.046875 C 23.394531 96.046875 11.726562 96.046875 0.046875 96.046875 C 0.046875 84.390625 0.046875 72.730469 0.0625 61.039062 C 0.0976562 61.027344 0.128906 61.046875 0.136719 61.070312 C 0.390625 61.976562 0.621094 62.890625 0.898438 63.789062 C 1.148438 64.597656 1.429688 65.402344 1.738281 66.191406 C 2.21875 67.40625 2.710938 68.617188 3.246094 69.808594 C 3.617188 70.640625 4.050781 71.441406 4.488281 72.242188 C 4.972656 73.125 5.472656 74.007812 6.007812 74.863281 C 6.59375 75.796875 7.203125 76.71875 7.851562 77.609375 C 8.46875 78.460938 9.132812 79.273438 9.804688 80.085938 C 10.394531 80.804688 10.980469 81.527344 11.632812 82.1875 C 12.742188 83.308594 13.886719 84.394531 15.046875 85.460938 C 15.738281 86.097656 16.472656 86.691406 17.21875 87.261719 C 18.15625 87.980469 19.113281 88.675781 20.089844 89.34375 C 20.847656 89.859375 21.636719 90.335938 22.433594 90.800781 C 23.332031 91.320312 24.238281 91.828125 25.164062 92.304688 C 25.945312 92.707031 26.75 93.066406 27.558594 93.417969 C 28.398438 93.78125 29.242188 94.136719 30.105469 94.445312 C 31.152344 94.820312 32.214844 95.148438 33.273438 95.480469 C 33.835938 95.65625 34.40625 95.796875 34.96875 95.953125 C 35.007812 95.964844 35.03125 96.015625 35.0625 96.046875 Z M 35.0625 96.046875 "/>
<path style=" stroke:none;fill-rule:nonzero;fill:rgb(100%,100%,100%);fill-opacity:1;" d="M 35.085938 96.046875 C 35.03125 96.015625 35.007812 95.964844 34.96875 95.953125 C 34.40625 95.796875 33.835938 95.65625 33.273438 95.480469 C 32.214844 95.148438 31.152344 94.820312 30.105469 94.445312 C 29.242188 94.136719 28.398438 93.78125 27.558594 93.417969 C 26.75 93.066406 25.945312 92.707031 25.164062 92.304688 C 24.238281 91.828125 23.332031 91.320312 22.433594 90.800781 C 21.636719 90.335938 20.847656 89.859375 20.089844 89.34375 C 19.113281 88.675781 18.15625 87.980469 17.21875 87.261719 C 16.472656 86.691406 15.738281 86.097656 15.046875 85.460938 C 13.886719 84.394531 12.742188 83.308594 11.632812 82.1875 C 10.980469 81.527344 10.394531 80.804688 9.804688 80.085938 C 9.132812 79.273438 8.46875 78.460938 7.851562 77.609375 C 7.203125 76.71875 6.59375 75.796875 6.007812 74.863281 C 5.472656 74.007812 4.972656 73.125 4.488281 72.242188 C 4.050781 71.441406 3.617188 70.640625 3.246094 69.808594 C 2.710938 68.617188 2.21875 67.40625 1.738281 66.191406 C 1.429688 65.402344 1.148438 64.597656 0.898438 63.789062 C 0.621094 62.890625 0.390625 61.976562 0.136719 61.070312 C 0.128906 61.046875 0.0976562 61.027344 0.0625 61.015625 C 0.046875 57.390625 0.046875 53.746094 0.046875 50.085938 C 0.0625 50.121094 0.0859375 50.179688 0.09375 50.238281 C 0.171875 51.269531 0.230469 52.300781 0.332031 53.332031 C 0.417969 54.191406 0.507812 55.058594 0.671875 55.910156 C 0.976562 57.464844 1.292969 59.019531 1.691406 60.550781 C 2.949219 65.363281 4.972656 69.84375 7.660156 74.027344 C 8.902344 75.957031 10.273438 77.789062 11.78125 79.519531 C 13.183594 81.128906 14.683594 82.636719 16.285156 84.050781 C 18.851562 86.320312 21.628906 88.289062 24.613281 89.964844 C 27.703125 91.699219 30.949219 93.066406 34.34375 94.078125 C 36.089844 94.597656 37.855469 95.019531 39.648438 95.332031 C 40.6875 95.511719 41.734375 95.636719 42.777344 95.761719 C 43.488281 95.847656 44.203125 95.894531 44.914062 95.953125 C 45.277344 95.980469 45.640625 95.996094 46.015625 96.03125 C 42.390625 96.046875 38.746094 96.046875 35.085938 96.046875 Z M 35.085938 96.046875 "/>
<path style=" stroke:none;fill-rule:nonzero;fill:rgb(99.607843%,99.607843%,100%);fill-opacity:1;" d="M 80.027344 83.933594 C 79.417969 84.53125 78.808594 85.125 78.164062 85.679688 C 76.957031 86.71875 75.722656 87.726562 74.394531 88.609375 C 73.277344 89.351562 72.167969 90.109375 71.007812 90.785156 C 69.71875 91.535156 68.398438 92.238281 67.050781 92.882812 C 65.902344 93.433594 64.707031 93.890625 63.519531 94.355469 C 62.699219 94.675781 61.867188 94.960938 61.03125 95.222656 C 60.167969 95.488281 59.292969 95.710938 58.421875 95.957031 C 58.390625 95.964844 58.363281 95.996094 58.34375 96.03125 C 55.609375 96.046875 52.855469 96.046875 50.085938 96.046875 C 50.136719 96.03125 50.207031 96.007812 50.28125 96 C 51.132812 95.9375 51.988281 95.898438 52.835938 95.808594 C 53.851562 95.703125 54.871094 95.585938 55.878906 95.425781 C 57.71875 95.136719 59.539062 94.722656 61.328125 94.207031 C 65.070312 93.125 68.628906 91.613281 72.003906 89.667969 C 74.335938 88.324219 76.539062 86.789062 78.617188 85.078125 C 79.003906 84.761719 79.371094 84.425781 79.753906 84.101562 C 79.832031 84.03125 79.929688 83.976562 80.027344 83.933594 Z M 80.027344 83.933594 "/>
<path style=" stroke:none;fill-rule:nonzero;fill:rgb(99.607843%,99.607843%,100%);fill-opacity:1;" d="M 0.046875 37.757812 C 0.078125 37.710938 0.128906 37.695312 0.136719 37.664062 C 0.5 36.207031 0.929688 34.765625 1.449219 33.351562 C 1.800781 32.402344 2.160156 31.457031 2.554688 30.523438 C 2.949219 29.597656 3.347656 28.667969 3.816406 27.777344 C 4.457031 26.558594 5.15625 25.371094 5.847656 24.175781 C 6.6875 22.722656 7.683594 21.371094 8.691406 20.027344 C 9.09375 19.488281 9.53125 18.976562 9.96875 18.464844 C 10.460938 17.894531 10.964844 17.335938 11.46875 16.773438 C 11.683594 16.539062 11.902344 16.308594 12.128906 16.066406 C 12.097656 16.144531 12.066406 16.25 12.003906 16.324219 C 11.179688 17.34375 10.316406 18.332031 9.535156 19.378906 C 6.070312 24.015625 3.53125 29.117188 1.917969 34.679688 C 1.445312 36.3125 1.054688 37.96875 0.761719 39.644531 C 0.582031 40.679688 0.445312 41.726562 0.335938 42.773438 C 0.226562 43.800781 0.171875 44.832031 0.09375 45.863281 C 0.0898438 45.910156 0.078125 45.957031 0.0585938 46.015625 C 0.046875 43.28125 0.046875 40.527344 0.046875 37.757812 Z M 0.046875 37.757812 "/>
<path style=" stroke:none;fill-rule:nonzero;fill:rgb(100%,100%,100%);fill-opacity:1;" d="M 40.96875 39.773438 C 40.964844 39.898438 40.957031 39.996094 40.957031 40.097656 C 40.957031 45.144531 40.957031 50.191406 40.957031 55.238281 C 40.957031 55.328125 40.957031 55.421875 40.957031 55.53125 C 40.875 55.539062 40.804688 55.546875 40.738281 55.546875 C 39.566406 55.546875 38.394531 55.542969 37.222656 55.550781 C 37.070312 55.550781 36.988281 55.5 36.90625 55.375 C 32.277344 48.183594 27.640625 40.992188 23.015625 33.796875 C 22.691406 33.296875 22.453125 32.738281 22.171875 32.210938 C 22.136719 32.140625 22.09375 32.078125 22.03125 31.980469 C 22.03125 32.363281 22.019531 32.691406 22.035156 33.023438 C 22.050781 33.390625 22.117188 33.761719 22.121094 34.132812 C 22.128906 36.25 22.125 38.367188 22.125 40.484375 C 22.125 45.402344 22.125 50.324219 22.125 55.246094 C 22.125 55.339844 22.125 55.429688 22.125 55.535156 C 21.054688 55.535156 20.007812 55.535156 18.945312 55.535156 C 18.945312 46.429688 18.945312 37.332031 18.945312 28.21875 C 19.023438 28.214844 19.089844 28.207031 19.160156 28.207031 C 20.398438 28.207031 21.640625 28.210938 22.882812 28.207031 C 23.019531 28.203125 23.109375 28.230469 23.191406 28.355469 C 27.917969 35.773438 32.652344 43.1875 37.382812 50.605469 C 37.550781 50.871094 37.707031 51.144531 37.917969 51.40625 C 37.902344 51.132812 37.882812 50.863281 37.867188 50.59375 C 37.824219 49.722656 37.753906 48.851562 37.75 47.980469 C 37.742188 44.253906 37.75 40.527344 37.753906 36.800781 C 37.753906 36.683594 37.757812 36.566406 37.75 36.433594 C 37.746094 36.085938 37.75 35.75 37.75 35.414062 C 37.75 33.117188 37.75 30.820312 37.75 28.523438 C 37.75 28.425781 37.75 28.324219 37.75 28.21875 C 38.832031 28.21875 39.882812 28.21875 40.957031 28.21875 C 40.957031 28.324219 40.957031 28.414062 40.957031 28.507812 C 40.957031 32.136719 40.957031 35.769531 40.957031 39.402344 C 40.957031 39.519531 40.960938 39.636719 40.96875 39.773438 Z M 40.96875 39.773438 "/>
<path style=" stroke:none;fill-rule:nonzero;fill:rgb(100%,100%,100%);fill-opacity:1;" d="M 56.882812 55.550781 C 56.183594 55.550781 55.503906 55.546875 54.824219 55.546875 C 52.578125 55.546875 50.332031 55.546875 48.046875 55.546875 C 48.046875 52.617188 48.046875 49.699219 48.042969 46.753906 C 48.042969 46.632812 48.046875 46.53125 48.046875 46.429688 C 48.046875 40.453125 48.046875 34.476562 48.046875 28.503906 C 48.046875 28.410156 48.046875 28.320312 48.046875 28.214844 C 52.671875 28.214844 57.277344 28.214844 61.898438 28.214844 C 61.898438 29.171875 61.898438 30.121094 61.898438 31.089844 C 58.378906 31.089844 54.867188 31.089844 51.339844 31.089844 C 51.339844 34.125 51.339844 37.136719 51.339844 40.175781 C 54.609375 40.175781 57.882812 40.175781 61.171875 40.175781 C 61.171875 41.152344 61.171875 42.101562 61.171875 43.070312 C 57.886719 43.070312 54.621094 43.070312 51.324219 43.070312 C 51.324219 45.429688 51.324219 47.769531 51.324219 50.15625 C 51.324219 50.972656 51.324219 51.75 51.324219 52.535156 C 52.136719 52.535156 52.929688 52.535156 53.722656 52.535156 C 54.015625 52.539062 54.3125 52.542969 54.609375 52.546875 C 57.179688 52.546875 59.746094 52.546875 62.316406 52.546875 C 62.398438 52.546875 62.484375 52.546875 62.578125 52.546875 C 62.578125 53.550781 62.578125 54.539062 62.578125 55.550781 C 60.675781 55.550781 58.792969 55.550781 56.882812 55.550781 Z M 56.882812 55.550781 "/>
<path style=" stroke:none;fill-rule:nonzero;fill:rgb(100%,100%,100%);fill-opacity:1;" d="M 75.609375 55.546875 C 74.695312 55.546875 73.808594 55.546875 72.898438 55.546875 C 72.898438 47.390625 72.898438 39.257812 72.898438 31.101562 C 70.277344 31.101562 67.679688 31.101562 65.0625 31.101562 C 65.0625 30.132812 65.0625 29.183594 65.0625 28.21875 C 71.382812 28.21875 77.703125 28.21875 84.035156 28.21875 C 84.035156 29.171875 84.035156 30.121094 84.035156 31.089844 C 81.398438 31.089844 78.769531 31.089844 76.113281 31.089844 C 76.113281 39.242188 76.113281 47.375 76.113281 55.546875 C 75.933594 55.546875 75.785156 55.546875 75.609375 55.546875 Z M 75.609375 55.546875 "/>
<path style=" stroke:none;fill-rule:nonzero;fill:rgb(42.745098%,25.882353%,61.176471%);fill-opacity:1;" d="M 53.71875 52.519531 C 52.929688 52.535156 52.136719 52.535156 51.324219 52.535156 C 51.324219 51.75 51.324219 50.972656 51.328125 50.175781 C 51.386719 50.183594 51.449219 50.207031 51.488281 50.246094 C 52.210938 50.96875 52.933594 51.6875 53.652344 52.410156 C 53.679688 52.4375 53.695312 52.472656 53.71875 52.519531 Z M 53.71875 52.519531 "/>
<path style=" stroke:none;fill-rule:nonzero;fill:rgb(94.509804%,94.509804%,94.901961%);fill-opacity:1;" d="M 64.074219 74.484375 C 63.046875 74.910156 61.988281 74.972656 60.929688 74.796875 C 59.882812 74.617188 59.023438 74.078125 58.488281 73.140625 C 57.46875 71.347656 57.429688 69.496094 58.324219 67.65625 C 58.886719 66.5 59.828125 65.71875 61.117188 65.519531 C 62.386719 65.328125 63.617188 65.453125 64.550781 66.488281 C 65.144531 67.144531 65.472656 67.941406 65.566406 68.8125 C 65.625 69.375 65.574219 69.949219 65.574219 70.542969 C 63.5 70.542969 61.386719 70.542969 59.246094 70.542969 C 59.257812 71.183594 59.398438 71.761719 59.679688 72.308594 C 60.039062 73.011719 60.625 73.425781 61.378906 73.589844 C 62.582031 73.855469 63.667969 73.519531 64.683594 72.871094 C 64.765625 72.820312 64.847656 72.757812 64.96875 72.671875 C 64.96875 73.125 64.972656 73.53125 64.960938 73.941406 C 64.960938 73.996094 64.878906 74.070312 64.820312 74.101562 C 64.582031 74.234375 64.335938 74.355469 64.074219 74.484375 M 59.519531 68.40625 C 59.429688 68.707031 59.339844 69.003906 59.242188 69.324219 C 60.910156 69.324219 62.507812 69.324219 64.128906 69.324219 C 64.132812 68.554688 63.960938 67.855469 63.429688 67.3125 C 62.769531 66.636719 61.945312 66.566406 61.085938 66.84375 C 60.324219 67.089844 59.863281 67.675781 59.519531 68.40625 Z M 59.519531 68.40625 "/>
<path style=" stroke:none;fill-rule:nonzero;fill:rgb(94.509804%,94.509804%,94.509804%);fill-opacity:1;" d="M 29.816406 68.484375 C 29.835938 66.175781 30.714844 64.3125 32.589844 62.976562 C 33.542969 62.300781 34.621094 61.957031 35.789062 61.914062 C 36.902344 61.875 38 61.957031 39.054688 62.351562 C 39.203125 62.40625 39.261719 62.472656 39.257812 62.636719 C 39.242188 63.050781 39.25 63.460938 39.25 63.878906 C 39.207031 63.878906 39.183594 63.886719 39.164062 63.878906 C 38.421875 63.515625 37.652344 63.300781 36.820312 63.21875 C 35.132812 63.054688 33.71875 63.539062 32.617188 64.828125 C 31.792969 65.792969 31.414062 66.945312 31.371094 68.207031 C 31.339844 69.179688 31.441406 70.121094 31.859375 71.015625 C 32.519531 72.417969 33.589844 73.300781 35.125 73.535156 C 36.457031 73.742188 37.746094 73.523438 38.957031 72.90625 C 39.035156 72.867188 39.117188 72.828125 39.230469 72.773438 C 39.230469 73.222656 39.234375 73.640625 39.226562 74.054688 C 39.222656 74.105469 39.160156 74.175781 39.105469 74.199219 C 38.097656 74.664062 37.042969 74.878906 35.933594 74.882812 C 35.25 74.886719 34.574219 74.863281 33.917969 74.660156 C 31.878906 74.03125 30.652344 72.621094 30.054688 70.617188 C 29.847656 69.929688 29.796875 69.222656 29.816406 68.484375 Z M 29.816406 68.484375 "/>
<path style=" stroke:none;fill-rule:nonzero;fill:rgb(94.509804%,94.509804%,94.509804%);fill-opacity:1;" d="M 49.558594 68.144531 C 49.96875 69.527344 50 70.890625 49.4375 72.214844 C 48.777344 73.757812 47.59375 74.65625 45.910156 74.859375 C 44.488281 75.03125 43.242188 74.632812 42.230469 73.605469 C 41.570312 72.9375 41.179688 72.113281 41.039062 71.1875 C 40.835938 69.832031 40.96875 68.527344 41.71875 67.339844 C 42.484375 66.125 43.625 65.53125 45.019531 65.402344 C 45.757812 65.332031 46.5 65.363281 47.214844 65.636719 C 48.394531 66.09375 49.140625 66.949219 49.558594 68.144531 M 45.167969 66.703125 C 44.367188 66.726562 43.703125 67.058594 43.238281 67.691406 C 42.332031 68.914062 42.234375 70.292969 42.695312 71.691406 C 43.257812 73.402344 44.777344 73.949219 46.277344 73.59375 C 47.476562 73.308594 48.027344 72.410156 48.269531 71.292969 C 48.34375 70.960938 48.324219 70.605469 48.324219 70.261719 C 48.324219 69.878906 48.347656 69.484375 48.269531 69.113281 C 48.066406 68.152344 47.632812 67.34375 46.683594 66.902344 C 46.207031 66.679688 45.714844 66.699219 45.167969 66.703125 Z M 45.167969 66.703125 "/>
<path style=" stroke:none;fill-rule:nonzero;fill:rgb(94.901961%,94.509804%,94.901961%);fill-opacity:1;" d="M 54.449219 66.167969 C 55.082031 65.542969 55.828125 65.421875 56.648438 65.59375 C 56.71875 65.605469 56.820312 65.695312 56.824219 65.753906 C 56.835938 66.191406 56.832031 66.625 56.832031 67.089844 C 56.761719 67.0625 56.707031 67.046875 56.652344 67.023438 C 55.765625 66.601562 54.734375 66.910156 54.222656 67.75 C 53.820312 68.402344 53.621094 69.113281 53.625 69.882812 C 53.625 71.398438 53.625 72.914062 53.625 74.429688 C 53.625 74.5 53.625 74.566406 53.625 74.65625 C 53.128906 74.65625 52.640625 74.65625 52.140625 74.65625 C 52.140625 71.667969 52.140625 68.679688 52.140625 65.683594 C 52.628906 65.683594 53.109375 65.683594 53.613281 65.683594 C 53.613281 66.257812 53.613281 66.832031 53.613281 67.40625 C 53.832031 66.953125 54.074219 66.527344 54.449219 66.167969 Z M 54.449219 66.167969 "/>
<path style=" stroke:none;fill-rule:nonzero;fill:rgb(99.607843%,99.607843%,99.607843%);fill-opacity:1;" d="M 11.066406 51.652344 C 12.058594 51.65625 12.894531 52.234375 13.164062 53.136719 C 13.429688 54.003906 13.234375 54.777344 12.542969 55.382812 C 11.878906 55.964844 11.105469 56.101562 10.300781 55.738281 C 9.484375 55.367188 9.0625 54.707031 9.035156 53.792969 C 9.007812 52.882812 9.679688 51.902344 10.785156 51.660156 C 10.867188 51.640625 10.957031 51.65625 11.066406 51.652344 Z M 11.066406 51.652344 "/>
<path style=" stroke:none;fill-rule:nonzero;fill:rgb(31.372549%,15.294118%,49.411765%);fill-opacity:1;" d="M 82.160156 81.800781 C 82.125 81.875 82.070312 81.949219 82.003906 82.03125 C 82.039062 81.957031 82.089844 81.878906 82.160156 81.800781 Z M 82.160156 81.800781 "/>
<path style=" stroke:none;fill-rule:nonzero;fill:rgb(31.372549%,15.294118%,49.411765%);fill-opacity:1;" d="M 14.074219 14.105469 C 14.125 14.042969 14.195312 13.980469 14.277344 13.917969 C 14.226562 13.980469 14.160156 14.042969 14.074219 14.105469 Z M 14.074219 14.105469 "/>
<path style=" stroke:none;fill-rule:nonzero;fill:rgb(99.607843%,99.607843%,100%);fill-opacity:1;" d="M 12.222656 16.003906 C 12.253906 15.941406 12.296875 15.894531 12.359375 15.84375 C 12.328125 15.898438 12.28125 15.960938 12.222656 16.003906 Z M 12.222656 16.003906 "/>
<path style=" stroke:none;fill-rule:nonzero;fill:rgb(99.607843%,99.607843%,100%);fill-opacity:1;" d="M 80.234375 83.710938 C 80.210938 83.769531 80.171875 83.816406 80.121094 83.871094 C 80.144531 83.824219 80.179688 83.761719 80.234375 83.710938 Z M 80.234375 83.710938 "/>
<path style=" stroke:none;fill-rule:nonzero;fill:rgb(99.607843%,99.607843%,100%);fill-opacity:1;" d="M 12.386719 15.851562 C 12.394531 15.8125 12.417969 15.78125 12.457031 15.746094 C 12.449219 15.78125 12.425781 15.820312 12.386719 15.851562 Z M 12.386719 15.851562 "/>
<path style=" stroke:none;fill-rule:nonzero;fill:rgb(99.607843%,99.607843%,100%);fill-opacity:1;" d="M 80.335938 83.621094 C 80.332031 83.652344 80.304688 83.683594 80.265625 83.71875 C 80.273438 83.6875 80.296875 83.652344 80.335938 83.621094 Z M 80.335938 83.621094 "/>
<path style=" stroke:none;fill-rule:nonzero;fill:rgb(31.372549%,15.294118%,49.411765%);fill-opacity:1;" d="M 13.9375 14.246094 C 13.933594 14.238281 13.9375 14.222656 13.949219 14.207031 C 13.960938 14.21875 13.957031 14.230469 13.9375 14.246094 Z M 13.9375 14.246094 "/>
<path style=" stroke:none;fill-rule:nonzero;fill:rgb(31.372549%,15.294118%,49.411765%);fill-opacity:1;" d="M 13.980469 14.195312 C 13.96875 14.179688 13.972656 14.167969 14 14.15625 C 14.011719 14.171875 14.003906 14.183594 13.980469 14.195312 Z M 13.980469 14.195312 "/>
<path style=" stroke:none;fill-rule:nonzero;fill:rgb(31.372549%,15.294118%,49.411765%);fill-opacity:1;" d="M 14.027344 14.148438 C 14.015625 14.136719 14.023438 14.121094 14.046875 14.109375 C 14.058594 14.121094 14.050781 14.136719 14.027344 14.148438 Z M 14.027344 14.148438 "/>
<path style=" stroke:none;fill-rule:nonzero;fill:rgb(31.372549%,15.294118%,49.411765%);fill-opacity:1;" d="M 81.976562 82.039062 C 81.984375 82.050781 81.976562 82.0625 81.953125 82.074219 C 81.945312 82.0625 81.953125 82.050781 81.976562 82.039062 Z M 81.976562 82.039062 "/>
<path style=" stroke:none;fill-rule:nonzero;fill:rgb(31.372549%,15.294118%,49.411765%);fill-opacity:1;" d="M 81.925781 82.085938 C 81.9375 82.097656 81.929688 82.109375 81.90625 82.121094 C 81.894531 82.109375 81.902344 82.097656 81.925781 82.085938 Z M 81.925781 82.085938 "/>
<path style=" stroke:none;fill-rule:nonzero;fill:rgb(31.372549%,15.294118%,49.411765%);fill-opacity:1;" d="M 81.878906 82.132812 C 81.882812 82.140625 81.875 82.15625 81.855469 82.167969 C 81.847656 82.152344 81.855469 82.140625 81.878906 82.132812 Z M 81.878906 82.132812 "/>
<path style=" stroke:none;fill-rule:nonzero;fill:rgb(43.137255%,26.27451%,61.176471%);fill-opacity:1;" d="M 59.527344 68.390625 C 59.863281 67.675781 60.324219 67.089844 61.085938 66.84375 C 61.945312 66.566406 62.769531 66.636719 63.429688 67.3125 C 63.960938 67.855469 64.132812 68.554688 64.128906 69.324219 C 62.507812 69.324219 60.910156 69.324219 59.242188 69.324219 C 59.339844 69.003906 59.429688 68.707031 59.527344 68.390625 Z M 59.527344 68.390625 "/>
<path style=" stroke:none;fill-rule:nonzero;fill:rgb(42.745098%,25.882353%,61.176471%);fill-opacity:1;" d="M 45.191406 66.703125 C 45.714844 66.699219 46.207031 66.679688 46.683594 66.902344 C 47.632812 67.34375 48.066406 68.152344 48.269531 69.113281 C 48.347656 69.484375 48.324219 69.878906 48.324219 70.261719 C 48.324219 70.605469 48.34375 70.960938 48.269531 71.292969 C 48.027344 72.410156 47.476562 73.308594 46.277344 73.59375 C 44.777344 73.949219 43.257812 73.402344 42.695312 71.691406 C 42.234375 70.292969 42.332031 68.914062 43.238281 67.691406 C 43.703125 67.058594 44.367188 66.726562 45.191406 66.703125 Z M 45.191406 66.703125 "/>
</g>
</svg>
