<?xml version="1.0" encoding="UTF-8"?>
<svg xmlns="http://www.w3.org/2000/svg" xmlns:xlink="http://www.w3.org/1999/xlink" width="96px" height="101px" viewBox="0 0 96 101" version="1.1">
<g id="surface1">
<path style=" stroke:none;fill-rule:nonzero;fill:rgb(100%,40%,0%);fill-opacity:1;" d="M 96.441406 97.066406 C 96.441406 97.257812 96.441406 97.453125 96.363281 97.867188 C 96.335938 98.328125 96.390625 98.570312 96.441406 98.8125 C 96.441406 99.652344 96.441406 100.492188 96.441406 101.4375 C 95.558594 101.4375 94.679688 101.4375 93.457031 101.292969 C 92.613281 101.101562 92.105469 101.007812 91.597656 101.007812 C 62.929688 101 34.261719 101 5.597656 101.019531 C 4.90625 101.019531 4.214844 101.292969 3.523438 101.4375 C 2.496094 101.4375 1.472656 101.4375 0.441406 101.4375 C 0.441406 69.21875 0.441406 37 0.441406 4.410156 C 1.117188 2.136719 2.347656 0.835938 4.402344 0.4375 C 8.523438 0.4375 12.640625 0.4375 17.097656 0.511719 C 19.214844 1.257812 20.449219 2.378906 20.542969 4.535156 C 20.394531 11.167969 20.328125 17.636719 20.289062 24.109375 C 20.285156 24.523438 20.507812 24.9375 20.65625 25.558594 C 20.691406 29.472656 20.691406 33.1875 20.699219 36.902344 C 20.707031 39.914062 21.730469 40.929688 24.808594 40.929688 C 27.667969 40.933594 30.53125 40.832031 33.390625 40.878906 C 35.503906 40.914062 36.90625 40.101562 37.574219 37.878906 C 37.730469 37.292969 37.859375 36.863281 37.859375 36.4375 C 37.871094 26.171875 37.875 15.90625 37.855469 5.640625 C 37.855469 5.074219 37.652344 4.511719 37.554688 3.792969 C 38.695312 2.574219 39.824219 1.507812 40.953125 0.4375 C 45.367188 0.4375 49.78125 0.4375 54.445312 0.582031 C 56.957031 1.675781 57.710938 3.460938 57.703125 5.785156 C 57.671875 15.886719 57.6875 25.992188 57.691406 36.09375 C 57.691406 40.34375 58.175781 40.824219 62.503906 40.824219 C 72.164062 40.824219 81.828125 40.820312 91.492188 40.828125 C 93.558594 40.832031 95.488281 41.109375 96.039062 43.796875 C 96.015625 60.925781 96.003906 77.84375 96.019531 94.761719 C 96.019531 95.527344 96.292969 96.296875 96.441406 97.066406 M 58.203125 76.800781 C 59.0625 79.246094 60.765625 80.691406 63.398438 80.773438 C 66.328125 80.863281 69.261719 80.871094 72.191406 80.773438 C 75.433594 80.667969 77.46875 78.515625 77.5 75.320312 C 77.523438 72.554688 77.519531 69.789062 77.5 67.023438 C 77.476562 63.535156 75.492188 61.484375 71.9375 61.382812 C 69.445312 61.308594 66.949219 61.425781 64.460938 61.351562 C 61.28125 61.253906 59.117188 62.554688 57.90625 65.898438 C 57.964844 69.4375 58.019531 72.976562 58.203125 76.800781 Z M 58.203125 76.800781 "/>
<path style=" stroke:none;fill-rule:nonzero;fill:rgb(100%,100%,100%);fill-opacity:1;" d="M 96.054688 43.582031 C 95.488281 41.109375 93.558594 40.832031 91.492188 40.828125 C 81.828125 40.820312 72.164062 40.824219 62.503906 40.824219 C 58.175781 40.824219 57.691406 40.34375 57.691406 36.09375 C 57.6875 25.992188 57.671875 15.886719 57.703125 5.785156 C 57.710938 3.460938 56.957031 1.675781 54.652344 0.582031 C 68.519531 0.4375 82.433594 0.4375 96.441406 0.4375 C 96.441406 14.730469 96.441406 29.019531 96.351562 43.460938 C 96.265625 43.605469 96.054688 43.582031 96.054688 43.582031 Z M 96.054688 43.582031 "/>
<path style=" stroke:none;fill-rule:nonzero;fill:rgb(100%,99.607843%,99.607843%);fill-opacity:1;" d="M 20.628906 4.378906 C 20.449219 2.378906 19.214844 1.257812 17.304688 0.511719 C 24.964844 0.4375 32.753906 0.4375 40.746094 0.4375 C 39.824219 1.507812 38.695312 2.574219 37.503906 3.992188 C 37.457031 15.574219 37.46875 26.804688 37.484375 38.035156 C 36.90625 40.101562 35.503906 40.914062 33.390625 40.878906 C 30.53125 40.832031 27.667969 40.933594 24.808594 40.929688 C 21.730469 40.929688 20.707031 39.914062 20.699219 36.902344 C 20.691406 33.1875 20.691406 29.472656 20.6875 25.355469 C 20.667969 18.089844 20.648438 11.234375 20.628906 4.378906 Z M 20.628906 4.378906 "/>
<path style=" stroke:none;fill-rule:nonzero;fill:rgb(100%,99.215686%,98.823529%);fill-opacity:1;" d="M 4.1875 0.4375 C 2.347656 0.835938 1.117188 2.136719 0.441406 4.203125 C 0.441406 3.097656 0.441406 1.820312 0.441406 0.4375 C 1.617188 0.4375 2.792969 0.4375 4.1875 0.4375 Z M 4.1875 0.4375 "/>
<path style=" stroke:none;fill-rule:nonzero;fill:rgb(100%,99.215686%,98.823529%);fill-opacity:1;" d="M 58.082031 65.585938 C 59.117188 62.554688 61.28125 61.253906 64.460938 61.351562 C 66.949219 61.425781 69.445312 61.308594 71.9375 61.382812 C 75.492188 61.484375 77.476562 63.535156 77.5 67.023438 C 77.519531 69.789062 77.523438 72.554688 77.5 75.320312 C 77.46875 78.515625 75.433594 80.667969 72.191406 80.773438 C 69.261719 80.871094 66.328125 80.863281 63.398438 80.773438 C 60.765625 80.691406 59.0625 79.246094 58.164062 76.453125 C 58.109375 72.597656 58.097656 69.09375 58.082031 65.585938 Z M 58.082031 65.585938 "/>
<path style=" stroke:none;fill-rule:nonzero;fill:rgb(100%,34.509804%,0%);fill-opacity:1;" d="M 37.574219 37.878906 C 37.46875 26.804688 37.457031 15.574219 37.492188 4.144531 C 37.652344 4.511719 37.855469 5.074219 37.855469 5.640625 C 37.875 15.90625 37.871094 26.171875 37.859375 36.4375 C 37.859375 36.863281 37.730469 37.292969 37.574219 37.878906 Z M 37.574219 37.878906 "/>
<path style=" stroke:none;fill-rule:nonzero;fill:rgb(100%,34.509804%,0%);fill-opacity:1;" d="M 20.542969 4.535156 C 20.648438 11.234375 20.667969 18.089844 20.65625 25.152344 C 20.507812 24.9375 20.285156 24.523438 20.289062 24.109375 C 20.328125 17.636719 20.394531 11.167969 20.542969 4.535156 Z M 20.542969 4.535156 "/>
<path style=" stroke:none;fill-rule:nonzero;fill:rgb(100%,34.509804%,0%);fill-opacity:1;" d="M 57.992188 65.742188 C 58.097656 69.09375 58.109375 72.597656 58.101562 76.308594 C 58.019531 72.976562 57.964844 69.4375 57.992188 65.742188 Z M 57.992188 65.742188 "/>
</g>
</svg>
