<?xml version="1.0" encoding="UTF-8"?>
<svg xmlns="http://www.w3.org/2000/svg" xmlns:xlink="http://www.w3.org/1999/xlink" width="96px" height="96px" viewBox="0 0 96 96" version="1.1">
<g id="surface1">
<path style=" stroke:none;fill-rule:nonzero;fill:rgb(99.607843%,100%,100%);fill-opacity:1;" d="M 56.320312 96.320312 C 37.546875 96.320312 18.933594 96.320312 0.320312 96.320312 C 0.320312 64.320312 0.320312 32.320312 0.320312 0.320312 C 32.320312 0.320312 64.320312 0.320312 96.320312 0.320312 C 96.320312 32.320312 96.320312 64.320312 96.320312 96.320312 C 83.039062 96.320312 69.761719 96.320312 56.320312 96.320312 M 70.589844 18.433594 C 72.226562 17.472656 74.011719 16.691406 75.464844 15.503906 C 77.105469 14.164062 77.113281 12.1875 75.519531 10.796875 C 74.222656 9.667969 72.6875 8.699219 71.101562 8.03125 C 65.90625 5.855469 60.386719 5.1875 54.804688 4.753906 C 46.574219 4.113281 38.429688 4.550781 30.398438 6.429688 C 27.039062 7.210938 23.683594 8.179688 21.113281 10.703125 C 19.578125 12.214844 19.460938 14.101562 21.109375 15.4375 C 22.640625 16.683594 24.535156 17.480469 26.496094 18.558594 C 32.433594 20.652344 38.605469 21.367188 44.84375 21.578125 C 53.507812 21.875 62.078125 21.320312 70.589844 18.433594 M 48.296875 95.753906 C 54.710938 95.792969 61.058594 95.191406 67.308594 93.726562 C 72.199219 92.578125 76.984375 91.136719 80.984375 87.894531 C 82.898438 86.34375 83.902344 84.425781 83.894531 81.824219 C 83.835938 60.242188 83.863281 38.660156 83.863281 17.078125 C 83.863281 16.585938 83.863281 16.09375 83.863281 15.996094 C 82.304688 17.40625 80.886719 19.261719 79.011719 20.253906 C 75.886719 21.90625 72.554688 23.277344 69.164062 24.269531 C 62.277344 26.285156 55.136719 26.703125 47.707031 26.851562 C 41.304688 26.695312 34.929688 26.226562 28.710938 24.605469 C 22.65625 23.027344 16.546875 21.4375 12.78125 15.429688 C 12.78125 16.097656 12.78125 16.566406 12.78125 17.035156 C 12.78125 38.625 12.808594 60.210938 12.746094 81.800781 C 12.738281 84.402344 13.691406 86.367188 15.648438 87.867188 C 16.988281 88.894531 18.425781 89.875 19.957031 90.570312 C 28.871094 94.601562 38.339844 95.699219 48.296875 95.753906 Z M 48.296875 95.753906 "/>
<path style=" stroke:none;fill-rule:nonzero;fill:rgb(0.392157%,44.705882%,77.254902%);fill-opacity:1;" d="M 48.003906 95.695312 C 38.339844 95.699219 28.871094 94.601562 19.957031 90.570312 C 18.425781 89.875 16.988281 88.894531 15.648438 87.867188 C 13.691406 86.367188 12.738281 84.402344 12.746094 81.800781 C 12.808594 60.210938 12.78125 38.625 12.78125 17.035156 C 12.78125 16.566406 12.78125 16.097656 12.78125 15.429688 C 16.546875 21.4375 22.65625 23.027344 28.710938 24.605469 C 34.929688 26.226562 41.304688 26.695312 47.851562 27.027344 C 48.003906 33.210938 48.019531 39.214844 47.933594 45.285156 C 45.039062 46 42.730469 47.382812 41.171875 49.855469 C 36.554688 57.175781 39.6875 65.632812 48.019531 68.535156 C 48.003906 77.691406 48.003906 86.691406 48.003906 95.695312 M 22.445312 64.507812 C 22.445312 67.570312 22.527344 67.839844 25.628906 68.128906 C 27.761719 68.328125 29.988281 68.253906 32.085938 67.847656 C 34.808594 67.316406 36.582031 65.539062 36.976562 62.640625 C 37.355469 59.835938 36.167969 57.769531 33.851562 56.324219 C 32.410156 55.421875 30.886719 54.65625 29.398438 53.832031 C 28.207031 53.175781 27.496094 52.222656 27.875 50.828125 C 28.242188 49.460938 29.421875 49.039062 30.636719 49.179688 C 32.445312 49.386719 34.226562 49.832031 36.113281 50.195312 C 36.113281 49.320312 36.046875 48.214844 36.132812 47.121094 C 36.207031 46.1875 35.863281 45.683594 34.960938 45.613281 C 32.902344 45.453125 30.8125 45.0625 28.785156 45.257812 C 25.285156 45.597656 23.003906 47.746094 22.476562 50.660156 C 21.96875 53.480469 23.402344 56.085938 26.460938 57.832031 C 27.566406 58.464844 28.726562 59.007812 29.835938 59.636719 C 31.003906 60.300781 32.035156 61.171875 31.589844 62.679688 C 31.15625 64.15625 29.824219 64.574219 28.503906 64.328125 C 26.480469 63.949219 24.507812 63.308594 22.445312 62.761719 C 22.445312 63.074219 22.445312 63.644531 22.445312 64.507812 Z M 22.445312 64.507812 "/>
<path style=" stroke:none;fill-rule:nonzero;fill:rgb(15.294118%,52.941176%,80.784314%);fill-opacity:1;" d="M 48.03125 45.21875 C 48.019531 39.214844 48.003906 33.210938 47.992188 27.058594 C 55.136719 26.703125 62.277344 26.285156 69.164062 24.269531 C 72.554688 23.277344 75.886719 21.90625 79.011719 20.253906 C 80.886719 19.261719 82.304688 17.40625 83.863281 15.996094 C 83.863281 16.09375 83.863281 16.585938 83.863281 17.078125 C 83.863281 38.660156 83.835938 60.242188 83.894531 81.824219 C 83.902344 84.425781 82.898438 86.34375 80.984375 87.894531 C 76.984375 91.136719 72.199219 92.578125 67.308594 93.726562 C 61.058594 95.191406 54.710938 95.792969 48.152344 95.722656 C 48.003906 86.691406 48.003906 77.691406 48.144531 68.523438 C 49.007812 68.707031 49.859375 68.921875 50.417969 69.445312 C 51.539062 70.5 52.476562 71.738281 53.535156 72.863281 C 53.839844 73.191406 54.277344 73.59375 54.667969 73.609375 C 56.550781 73.683594 58.4375 73.644531 60.761719 73.644531 C 58.433594 71.46875 56.4375 69.597656 54.398438 67.691406 C 54.660156 67.523438 54.820312 67.378906 55.011719 67.304688 C 62.359375 64.292969 63.042969 52.339844 57.476562 47.59375 C 54.695312 45.226562 51.464844 44.871094 48.03125 45.21875 M 69.960938 56.480469 C 69.960938 52.828125 69.960938 49.175781 69.960938 45.539062 C 68.152344 45.539062 66.582031 45.539062 64.988281 45.539062 C 64.988281 53.074219 64.988281 60.503906 64.988281 68.027344 C 69.402344 68.027344 73.738281 68.027344 78.175781 68.027344 C 78.175781 66.671875 78.175781 65.375 78.175781 63.925781 C 75.4375 63.925781 72.796875 63.925781 69.960938 63.925781 C 69.960938 61.453125 69.960938 59.125 69.960938 56.480469 Z M 69.960938 56.480469 "/>
<path style=" stroke:none;fill-rule:nonzero;fill:rgb(72.156863%,83.137255%,20%);fill-opacity:1;" d="M 26.265625 18.472656 C 24.535156 17.480469 22.640625 16.683594 21.109375 15.4375 C 19.460938 14.101562 19.578125 12.214844 21.113281 10.703125 C 23.683594 8.179688 27.039062 7.210938 30.398438 6.429688 C 38.429688 4.550781 46.574219 4.113281 54.804688 4.753906 C 60.386719 5.1875 65.90625 5.855469 71.101562 8.03125 C 72.6875 8.699219 74.222656 9.667969 75.519531 10.796875 C 77.113281 12.1875 77.105469 14.164062 75.464844 15.503906 C 74.011719 16.691406 72.226562 17.472656 70.414062 18.359375 C 69.960938 18.148438 69.691406 17.972656 69.398438 17.875 C 63.769531 15.964844 57.921875 15.316406 52.039062 15.082031 C 45.664062 14.828125 39.289062 15.097656 33.019531 16.375 C 30.71875 16.839844 28.515625 17.761719 26.265625 18.472656 Z M 26.265625 18.472656 "/>
<path style=" stroke:none;fill-rule:nonzero;fill:rgb(50.588235%,73.333333%,1.176471%);fill-opacity:1;" d="M 26.378906 18.515625 C 28.515625 17.761719 30.71875 16.839844 33.019531 16.375 C 39.289062 15.097656 45.664062 14.828125 52.039062 15.082031 C 57.921875 15.316406 63.769531 15.964844 69.398438 17.875 C 69.691406 17.972656 69.960938 18.148438 70.300781 18.375 C 62.078125 21.320312 53.507812 21.875 44.84375 21.578125 C 38.605469 21.367188 32.433594 20.652344 26.378906 18.515625 Z M 26.378906 18.515625 "/>
<path style=" stroke:none;fill-rule:nonzero;fill:rgb(98.431373%,99.215686%,99.607843%);fill-opacity:1;" d="M 47.933594 45.285156 C 51.464844 44.871094 54.695312 45.226562 57.476562 47.59375 C 63.042969 52.339844 62.359375 64.292969 55.011719 67.304688 C 54.820312 67.378906 54.660156 67.523438 54.398438 67.691406 C 56.4375 69.597656 58.433594 71.46875 60.761719 73.644531 C 58.4375 73.644531 56.550781 73.683594 54.667969 73.609375 C 54.277344 73.59375 53.839844 73.191406 53.535156 72.863281 C 52.476562 71.738281 51.539062 70.5 50.417969 69.445312 C 49.859375 68.921875 49.007812 68.707031 48.15625 68.367188 C 39.6875 65.632812 36.554688 57.175781 41.171875 49.855469 C 42.730469 47.382812 45.039062 46 47.933594 45.285156 M 48.164062 63.628906 C 51.742188 64.722656 54.566406 63.222656 55.476562 59.597656 C 56.054688 57.292969 56.015625 54.953125 55.046875 52.722656 C 53.714844 49.664062 50.679688 48.660156 47.445312 50.277344 C 45.632812 51.433594 44.925781 53.242188 44.589844 55.234375 C 43.976562 58.859375 45.359375 62.179688 48.164062 63.628906 Z M 48.164062 63.628906 "/>
<path style=" stroke:none;fill-rule:nonzero;fill:rgb(97.647059%,98.823529%,99.607843%);fill-opacity:1;" d="M 22.445312 64.359375 C 22.445312 63.644531 22.445312 63.074219 22.445312 62.761719 C 24.507812 63.308594 26.480469 63.949219 28.503906 64.328125 C 29.824219 64.574219 31.15625 64.15625 31.589844 62.679688 C 32.035156 61.171875 31.003906 60.300781 29.835938 59.636719 C 28.726562 59.007812 27.566406 58.464844 26.460938 57.832031 C 23.402344 56.085938 21.96875 53.480469 22.476562 50.660156 C 23.003906 47.746094 25.285156 45.597656 28.785156 45.257812 C 30.8125 45.0625 32.902344 45.453125 34.960938 45.613281 C 35.863281 45.683594 36.207031 46.1875 36.132812 47.121094 C 36.046875 48.214844 36.113281 49.320312 36.113281 50.195312 C 34.226562 49.832031 32.445312 49.386719 30.636719 49.179688 C 29.421875 49.039062 28.242188 49.460938 27.875 50.828125 C 27.496094 52.222656 28.207031 53.175781 29.398438 53.832031 C 30.886719 54.65625 32.410156 55.421875 33.851562 56.324219 C 36.167969 57.769531 37.355469 59.835938 36.976562 62.640625 C 36.582031 65.539062 34.808594 67.316406 32.085938 67.847656 C 29.988281 68.253906 27.761719 68.328125 25.628906 68.128906 C 22.527344 67.839844 22.445312 67.570312 22.445312 64.359375 Z M 22.445312 64.359375 "/>
<path style=" stroke:none;fill-rule:nonzero;fill:rgb(97.254902%,98.431373%,99.607843%);fill-opacity:1;" d="M 69.960938 56.640625 C 69.960938 59.125 69.960938 61.453125 69.960938 63.925781 C 72.796875 63.925781 75.4375 63.925781 78.175781 63.925781 C 78.175781 65.375 78.175781 66.671875 78.175781 68.027344 C 73.738281 68.027344 69.402344 68.027344 64.988281 68.027344 C 64.988281 60.503906 64.988281 53.074219 64.988281 45.539062 C 66.582031 45.539062 68.152344 45.539062 69.960938 45.539062 C 69.960938 49.175781 69.960938 52.828125 69.960938 56.640625 Z M 69.960938 56.640625 "/>
<path style=" stroke:none;fill-rule:nonzero;fill:rgb(15.686275%,53.333333%,80.784314%);fill-opacity:1;" d="M 47.65625 50.226562 C 50.679688 48.660156 53.714844 49.664062 55.046875 52.722656 C 56.015625 54.953125 56.054688 57.292969 55.476562 59.597656 C 54.566406 63.222656 51.742188 64.722656 48.074219 63.398438 C 47.988281 59.347656 48.003906 55.527344 47.980469 51.710938 C 47.976562 51.214844 47.769531 50.71875 47.65625 50.226562 Z M 47.65625 50.226562 "/>
<path style=" stroke:none;fill-rule:nonzero;fill:rgb(3.137255%,46.27451%,78.039216%);fill-opacity:1;" d="M 47.550781 50.25 C 47.769531 50.71875 47.976562 51.214844 47.980469 51.710938 C 48.003906 55.527344 47.988281 59.347656 47.976562 63.324219 C 45.359375 62.179688 43.976562 58.859375 44.589844 55.234375 C 44.925781 53.242188 45.632812 51.433594 47.550781 50.25 Z M 47.550781 50.25 "/>
</g>
</svg>
