<?xml version="1.0" encoding="UTF-8"?>
<svg xmlns="http://www.w3.org/2000/svg" xmlns:xlink="http://www.w3.org/1999/xlink" width="96px" height="96px" viewBox="0 0 96 96" version="1.1">
<g id="surface1">
<path style=" stroke:none;fill-rule:nonzero;fill:rgb(0%,0%,0%);fill-opacity:1;" d="M 0.09375 25.539062 C 0.09375 17.058594 0.09375 8.578125 0.09375 0.0976562 C 32.09375 0.0976562 64.09375 0.0976562 96.09375 0.0976562 C 96.09375 4.824219 96.09375 9.546875 96.074219 14.34375 C 96.003906 14.398438 95.957031 14.375 95.90625 14.328125 C 95.898438 14.289062 95.890625 14.273438 95.894531 14.230469 C 95.871094 14.167969 95.839844 14.128906 95.78125 14.074219 C 95.25 12.316406 94.105469 11.136719 92.511719 10.363281 C 91.511719 9.878906 90.496094 9.425781 89.492188 8.949219 C 87.835938 8.160156 86.179688 7.371094 84.53125 6.5625 C 84 6.300781 83.511719 5.949219 82.976562 5.699219 C 81.863281 5.175781 80.730469 4.707031 79.617188 4.191406 C 78.964844 3.886719 78.34375 3.519531 77.695312 3.199219 C 76.429688 2.574219 75.15625 1.96875 73.890625 1.34375 C 72.480469 0.644531 71.054688 0.078125 69.425781 0.371094 C 68.503906 0.535156 67.644531 0.808594 66.875 1.398438 C 65.960938 2.285156 65.054688 3.148438 64.207031 4.070312 C 62.929688 5.457031 61.699219 6.890625 60.441406 8.296875 C 59.464844 9.386719 58.484375 10.464844 57.472656 11.5625 C 57.246094 11.816406 57.046875 12.058594 56.824219 12.304688 C 56.773438 12.332031 56.761719 12.355469 56.730469 12.402344 C 55.9375 13.269531 55.175781 14.128906 54.40625 14.980469 C 53.203125 16.316406 51.992188 17.644531 50.785156 18.976562 C 50.074219 19.761719 49.359375 20.546875 48.621094 21.347656 C 46.589844 23.589844 44.589844 25.816406 42.5625 28.058594 C 42.300781 28.34375 42.070312 28.617188 41.816406 28.898438 C 41.769531 28.921875 41.753906 28.945312 41.722656 28.992188 C 39.851562 31.046875 38.003906 33.089844 36.132812 35.144531 C 36.058594 35.246094 36.011719 35.328125 35.9375 35.425781 C 35.746094 35.617188 35.578125 35.792969 35.386719 35.980469 C 34.972656 36.421875 34.585938 36.847656 34.171875 37.265625 C 33.929688 37.082031 33.722656 36.902344 33.511719 36.726562 C 32.738281 36.078125 31.972656 35.425781 31.191406 34.785156 C 30.226562 33.996094 29.257812 33.214844 28.285156 32.433594 C 27.621094 31.902344 26.953125 31.371094 26.273438 30.8125 C 25.121094 29.859375 23.976562 28.945312 22.84375 28.011719 C 21.355469 26.785156 19.875 25.546875 18.394531 24.3125 C 16.917969 23.085938 15.449219 21.855469 13.96875 20.636719 C 12.949219 19.796875 11.757812 19.523438 10.5 19.851562 C 9.550781 20.101562 8.636719 20.511719 7.71875 20.882812 C 6.125 21.523438 4.535156 22.175781 2.953125 22.84375 C 1.722656 23.363281 0.703125 24.117188 0.269531 25.464844 C 0.253906 25.503906 0.152344 25.515625 0.09375 25.539062 Z M 0.09375 25.539062 "/>
<path style=" stroke:none;fill-rule:nonzero;fill:rgb(0%,0%,0%);fill-opacity:1;" d="M 96.09375 81.832031 C 96.09375 86.585938 96.09375 91.335938 96.09375 96.089844 C 96.078125 96.089844 96.066406 96.09375 96.050781 96.09375 C 64.074219 96.09375 32.101562 96.09375 0.09375 96.09375 C 0.09375 87.640625 0.09375 79.1875 0.125 70.667969 C 0.191406 70.632812 0.246094 70.65625 0.257812 70.695312 C 0.65625 71.851562 1.4375 72.65625 2.546875 73.125 C 4.8125 74.082031 7.097656 75.003906 9.363281 75.960938 C 10.292969 76.347656 11.21875 76.558594 12.230469 76.34375 C 13.128906 76.15625 13.800781 75.636719 14.480469 75.0625 C 15.777344 73.96875 17.113281 72.917969 18.425781 71.839844 C 19.566406 70.90625 20.683594 69.949219 21.820312 69.011719 C 23.273438 67.816406 24.734375 66.628906 26.222656 65.425781 C 26.308594 65.355469 26.359375 65.296875 26.417969 65.25 C 27.535156 64.351562 28.652344 63.457031 29.765625 62.554688 C 30.632812 61.851562 31.496094 61.144531 32.351562 60.429688 C 32.945312 59.933594 33.527344 59.417969 34.148438 58.90625 C 34.519531 59.253906 34.867188 59.59375 35.195312 59.953125 C 35.921875 60.75 36.640625 61.554688 37.378906 62.386719 C 37.578125 62.632812 37.765625 62.859375 37.960938 63.074219 C 39.140625 64.382812 40.316406 65.691406 41.503906 66.992188 C 42.589844 68.183594 43.6875 69.363281 44.777344 70.550781 C 45.089844 70.890625 45.398438 71.234375 45.710938 71.574219 C 46.5625 72.511719 47.414062 73.445312 48.28125 74.410156 C 48.351562 74.53125 48.394531 74.632812 48.464844 74.707031 C 49.394531 75.734375 50.328125 76.753906 51.265625 77.777344 C 52.300781 78.910156 53.339844 80.042969 54.378906 81.175781 C 54.722656 81.550781 55.066406 81.925781 55.410156 82.300781 C 56.230469 83.203125 57.054688 84.109375 57.886719 85.042969 C 58 85.203125 58.089844 85.347656 58.203125 85.472656 C 59.097656 86.460938 59.996094 87.449219 60.898438 88.4375 C 61.949219 89.585938 63.007812 90.730469 64.054688 91.878906 C 64.457031 92.320312 64.820312 92.800781 65.238281 93.226562 C 65.773438 93.769531 66.347656 94.269531 66.914062 94.8125 C 66.953125 94.84375 66.980469 94.855469 67.027344 94.878906 C 67.046875 94.886719 67.089844 94.882812 67.105469 94.914062 C 68.8125 95.957031 70.59375 96.210938 72.4375 95.457031 C 73.683594 94.945312 74.890625 94.339844 76.109375 93.765625 C 77.71875 93 79.328125 92.226562 80.933594 91.453125 C 83.402344 90.265625 85.867188 89.082031 88.332031 87.890625 C 89.898438 87.132812 91.46875 86.378906 93.019531 85.585938 C 93.480469 85.351562 93.925781 85.039062 94.292969 84.671875 C 94.996094 83.972656 95.558594 83.164062 95.824219 82.179688 C 95.863281 82.050781 96 81.949219 96.09375 81.832031 Z M 96.09375 81.832031 "/>
<path style=" stroke:none;fill-rule:nonzero;fill:rgb(72.156863%,52.156863%,94.901961%);fill-opacity:1;" d="M 96.09375 49.023438 C 96.09375 56.453125 96.09375 63.878906 96.050781 71.351562 C 88.03125 71.394531 80.054688 71.394531 72.074219 71.351562 C 72.0625 71.136719 72.058594 70.96875 72.058594 70.796875 C 72.050781 69.96875 72.046875 69.136719 72.042969 68.265625 C 72.046875 62.628906 72.046875 57.039062 72.046875 51.445312 C 72.046875 50.949219 72.054688 50.453125 72.09375 49.949219 C 72.195312 49.84375 72.324219 49.738281 72.3125 49.652344 C 72.210938 49 72.605469 49.019531 73.070312 49.019531 C 80.742188 49.027344 88.417969 49.023438 96.09375 49.023438 Z M 96.09375 49.023438 "/>
<path style=" stroke:none;fill-rule:nonzero;fill:rgb(70.588235%,49.411765%,94.509804%);fill-opacity:1;" d="M 72.078125 71.390625 C 80.054688 71.394531 88.03125 71.394531 96.050781 71.394531 C 96.09375 74.84375 96.09375 78.296875 96.09375 81.789062 C 96 81.949219 95.863281 82.050781 95.824219 82.179688 C 95.558594 83.164062 94.996094 83.972656 94.292969 84.671875 C 93.925781 85.039062 93.480469 85.351562 93.019531 85.585938 C 91.46875 86.378906 89.898438 87.132812 88.332031 87.890625 C 85.867188 89.082031 83.402344 90.265625 80.933594 91.453125 C 79.328125 92.226562 77.71875 93 76.109375 93.765625 C 74.890625 94.339844 73.683594 94.945312 72.4375 95.457031 C 70.59375 96.210938 68.8125 95.957031 67.144531 94.910156 C 67.6875 94.945312 68.207031 95.066406 68.726562 95.066406 C 70.535156 95.074219 72.042969 93.566406 72.054688 91.75 C 72.066406 89.5 72.054688 87.25 72.054688 84.957031 C 72.054688 81.433594 72.054688 77.953125 72.070312 74.445312 C 72.085938 73.40625 72.082031 72.398438 72.078125 71.390625 Z M 72.078125 71.390625 "/>
<path style=" stroke:none;fill-rule:nonzero;fill:rgb(75.294118%,57.254902%,95.686275%);fill-opacity:1;" d="M 96.09375 17.335938 C 96.09375 23.304688 96.09375 29.269531 96.050781 35.28125 C 88.335938 35.324219 80.667969 35.328125 73 35.316406 C 72.6875 35.316406 72.375 35.199219 72.054688 35.09375 C 72.046875 32.660156 72.042969 30.269531 72.046875 27.839844 C 72.058594 27.167969 72.0625 26.539062 72.0625 25.90625 C 72.058594 24.539062 72.058594 23.175781 72.054688 21.765625 C 72.074219 20.9375 72.097656 20.152344 72.105469 19.367188 C 72.109375 18.6875 72.097656 18.011719 72.132812 17.335938 C 80.144531 17.335938 88.121094 17.335938 96.09375 17.335938 Z M 96.09375 17.335938 "/>
<path style=" stroke:none;fill-rule:nonzero;fill:rgb(73.333333%,54.509804%,95.294118%);fill-opacity:1;" d="M 72.0625 35.136719 C 72.375 35.199219 72.6875 35.316406 73 35.316406 C 80.667969 35.328125 88.335938 35.324219 96.050781 35.324219 C 96.09375 39.863281 96.09375 44.398438 96.09375 48.980469 C 88.417969 49.023438 80.742188 49.027344 73.070312 49.019531 C 72.605469 49.019531 72.210938 49 72.3125 49.652344 C 72.324219 49.738281 72.195312 49.84375 72.089844 49.90625 C 72.046875 46.679688 72.046875 43.488281 72.046875 40.296875 C 72.046875 38.578125 72.058594 36.855469 72.0625 35.136719 Z M 72.0625 35.136719 "/>
<path style=" stroke:none;fill-rule:nonzero;fill:rgb(76.470588%,59.215686%,95.686275%);fill-opacity:1;" d="M 96.09375 17.292969 C 88.121094 17.335938 80.144531 17.335938 72.125 17.292969 C 72.089844 16.214844 72.113281 15.179688 72.117188 14.144531 C 72.117188 13.714844 72.078125 13.285156 72.058594 12.8125 C 72.058594 9.964844 72.070312 7.15625 72.050781 4.347656 C 72.035156 2.640625 70.523438 1.121094 68.820312 1.125 C 68.183594 1.125 67.542969 1.300781 66.90625 1.394531 C 67.644531 0.808594 68.503906 0.535156 69.425781 0.371094 C 71.054688 0.078125 72.480469 0.644531 73.890625 1.34375 C 75.15625 1.96875 76.429688 2.574219 77.695312 3.199219 C 78.34375 3.519531 78.964844 3.886719 79.617188 4.191406 C 80.730469 4.707031 81.863281 5.175781 82.976562 5.699219 C 83.511719 5.949219 84 6.300781 84.53125 6.5625 C 86.179688 7.371094 87.835938 8.160156 89.492188 8.949219 C 90.496094 9.425781 91.511719 9.878906 92.511719 10.363281 C 94.105469 11.136719 95.25 12.316406 95.785156 14.097656 C 95.839844 14.179688 95.863281 14.21875 95.886719 14.257812 C 95.890625 14.273438 95.898438 14.289062 95.90625 14.367188 C 95.96875 14.714844 96.03125 15 96.09375 15.285156 C 96.09375 15.941406 96.09375 16.59375 96.09375 17.292969 Z M 96.09375 17.292969 "/>
<path style=" stroke:none;fill-rule:nonzero;fill:rgb(60.784314%,42.745098%,81.960784%);fill-opacity:1;" d="M 0.09375 25.582031 C 0.152344 25.515625 0.253906 25.503906 0.269531 25.464844 C 0.703125 24.117188 1.722656 23.363281 2.953125 22.84375 C 4.535156 22.175781 6.125 21.523438 7.71875 20.882812 C 8.636719 20.511719 9.550781 20.101562 10.5 19.851562 C 11.757812 19.523438 12.949219 19.796875 13.96875 20.636719 C 15.449219 21.855469 16.917969 23.085938 18.394531 24.3125 C 19.875 25.546875 21.355469 26.785156 22.84375 28.011719 C 23.976562 28.945312 25.121094 29.859375 26.246094 30.835938 C 26.027344 30.90625 25.832031 30.941406 25.632812 30.941406 C 20.546875 30.945312 15.460938 30.945312 10.371094 30.941406 C 9.894531 30.9375 9.417969 30.882812 8.914062 30.835938 C 8.449219 30.34375 8.007812 29.867188 7.566406 29.386719 C 6.355469 28.0625 5.171875 26.714844 3.929688 25.421875 C 3 24.457031 1.308594 24.648438 0.550781 25.753906 C 0.363281 26.03125 0.246094 26.355469 0.09375 26.65625 C 0.09375 26.3125 0.09375 25.96875 0.09375 25.582031 Z M 0.09375 25.582031 "/>
<path style=" stroke:none;fill-rule:nonzero;fill:rgb(46.27451%,25.490196%,70.588235%);fill-opacity:1;" d="M 26.195312 65.4375 C 24.734375 66.628906 23.273438 67.816406 21.820312 69.011719 C 20.683594 69.949219 19.566406 70.90625 18.425781 71.839844 C 17.113281 72.917969 15.777344 73.96875 14.480469 75.0625 C 13.800781 75.636719 13.128906 76.15625 12.230469 76.34375 C 11.21875 76.558594 10.292969 76.347656 9.363281 75.960938 C 7.097656 75.003906 4.8125 74.082031 2.546875 73.125 C 1.4375 72.65625 0.65625 71.851562 0.257812 70.695312 C 0.246094 70.65625 0.191406 70.632812 0.125 70.625 C 0.09375 70.304688 0.09375 69.960938 0.113281 69.597656 C 0.191406 69.722656 0.242188 69.871094 0.300781 70.011719 C 0.851562 71.375 2.789062 71.863281 3.832031 70.847656 C 4.773438 69.933594 5.621094 68.925781 6.515625 67.964844 C 7.382812 67.023438 8.257812 66.085938 9.164062 65.160156 C 9.414062 65.199219 9.628906 65.238281 9.84375 65.238281 C 15.070312 65.242188 20.296875 65.242188 25.523438 65.25 C 25.746094 65.25 25.96875 65.371094 26.195312 65.4375 Z M 26.195312 65.4375 "/>
<path style=" stroke:none;fill-rule:nonzero;fill:rgb(42.745098%,26.666667%,61.176471%);fill-opacity:1;" d="M 0.09375 26.699219 C 0.246094 26.355469 0.363281 26.03125 0.550781 25.753906 C 1.308594 24.648438 3 24.457031 3.929688 25.421875 C 5.171875 26.714844 6.355469 28.0625 7.566406 29.386719 C 8.007812 29.867188 8.449219 30.34375 8.929688 30.863281 C 9.582031 31.585938 10.195312 32.257812 10.796875 32.945312 C 11.246094 33.453125 11.679688 33.976562 12.117188 34.535156 C 12.113281 36.316406 12.105469 38.058594 12.070312 39.804688 C 11.699219 39.902344 11.363281 40.0625 11.027344 40.066406 C 7.382812 40.085938 3.738281 40.078125 0.09375 40.078125 C 0.09375 35.632812 0.09375 31.1875 0.09375 26.699219 Z M 0.09375 26.699219 "/>
<path style=" stroke:none;fill-rule:nonzero;fill:rgb(38.039216%,20.392157%,58.039216%);fill-opacity:1;" d="M 9.128906 65.144531 C 8.257812 66.085938 7.382812 67.023438 6.515625 67.964844 C 5.621094 68.925781 4.773438 69.933594 3.832031 70.847656 C 2.789062 71.863281 0.851562 71.375 0.300781 70.011719 C 0.242188 69.871094 0.191406 69.722656 0.113281 69.554688 C 0.09375 66.234375 0.09375 62.941406 0.136719 59.601562 C 3.839844 59.558594 7.503906 59.5625 11.164062 59.550781 C 11.476562 59.546875 11.789062 59.433594 12.105469 59.414062 C 12.113281 60.203125 12.117188 60.949219 12.105469 61.722656 C 11.492188 62.414062 10.894531 63.078125 10.304688 63.75 C 9.902344 64.207031 9.519531 64.679688 9.128906 65.144531 Z M 9.128906 65.144531 "/>
<path style=" stroke:none;fill-rule:nonzero;fill:rgb(41.176471%,24.705882%,60.392157%);fill-opacity:1;" d="M 0.09375 40.121094 C 3.738281 40.078125 7.382812 40.085938 11.027344 40.066406 C 11.363281 40.0625 11.699219 39.902344 12.074219 39.847656 C 12.109375 42.246094 12.105469 44.609375 12.070312 46.984375 C 11.839844 47.292969 11.5625 47.355469 11.210938 47.355469 C 7.503906 47.34375 3.800781 47.347656 0.09375 47.347656 C 0.09375 44.953125 0.09375 42.558594 0.09375 40.121094 Z M 0.09375 40.121094 "/>
<path style=" stroke:none;fill-rule:nonzero;fill:rgb(39.215686%,21.960784%,58.823529%);fill-opacity:1;" d="M 12.101562 59.371094 C 11.789062 59.433594 11.476562 59.546875 11.164062 59.550781 C 7.503906 59.5625 3.839844 59.558594 0.136719 59.558594 C 0.09375 57.472656 0.09375 55.390625 0.136719 53.261719 C 3.839844 53.21875 7.503906 53.222656 11.164062 53.210938 C 11.476562 53.210938 11.789062 53.09375 12.105469 53.074219 C 12.109375 55.203125 12.105469 57.285156 12.101562 59.371094 Z M 12.101562 59.371094 "/>
<path style=" stroke:none;fill-rule:nonzero;fill:rgb(40.392157%,23.529412%,59.607843%);fill-opacity:1;" d="M 12.101562 53.03125 C 11.789062 53.09375 11.476562 53.210938 11.164062 53.210938 C 7.503906 53.222656 3.839844 53.21875 0.136719 53.21875 C 0.09375 51.292969 0.09375 49.363281 0.09375 47.390625 C 3.800781 47.347656 7.503906 47.34375 11.210938 47.355469 C 11.5625 47.355469 11.839844 47.292969 12.074219 47.027344 C 12.109375 49.050781 12.105469 51.042969 12.101562 53.03125 Z M 12.101562 53.03125 "/>
<path style=" stroke:none;fill-rule:nonzero;fill:rgb(75.294118%,57.254902%,95.686275%);fill-opacity:1;" d="M 96.09375 15.242188 C 96.03125 15 95.96875 14.714844 95.90625 14.390625 C 95.957031 14.375 96.003906 14.398438 96.074219 14.386719 C 96.09375 14.636719 96.09375 14.917969 96.09375 15.242188 Z M 96.09375 15.242188 "/>
<path style=" stroke:none;fill-rule:nonzero;fill:rgb(51.764706%,33.333333%,73.72549%);fill-opacity:1;" d="M 36.160156 35.132812 C 38.003906 33.089844 39.851562 31.046875 41.730469 29.027344 C 41.984375 29.121094 42.199219 29.257812 42.417969 29.257812 C 51.28125 29.265625 60.148438 29.265625 69.015625 29.265625 C 69.171875 29.265625 69.339844 29.230469 69.476562 29.277344 C 69.632812 29.332031 69.765625 29.460938 69.894531 29.585938 C 69.40625 30.023438 68.9375 30.441406 68.453125 30.835938 C 67.199219 31.855469 65.9375 32.863281 64.683594 33.882812 C 63.441406 34.890625 62.203125 35.902344 60.933594 36.898438 C 60.617188 36.828125 60.332031 36.730469 60.046875 36.730469 C 51.953125 36.722656 43.855469 36.722656 35.761719 36.722656 C 35.570312 36.71875 35.382812 36.695312 35.199219 36.683594 C 35.28125 36.402344 35.347656 36.1875 35.414062 35.96875 C 35.578125 35.792969 35.746094 35.617188 35.96875 35.417969 C 36.074219 35.308594 36.117188 35.222656 36.160156 35.132812 Z M 36.160156 35.132812 "/>
<path style=" stroke:none;fill-rule:nonzero;fill:rgb(52.941176%,34.901961%,74.509804%);fill-opacity:1;" d="M 69.90625 29.558594 C 69.765625 29.460938 69.632812 29.332031 69.476562 29.277344 C 69.339844 29.230469 69.171875 29.265625 69.015625 29.265625 C 60.148438 29.265625 51.28125 29.265625 42.417969 29.257812 C 42.199219 29.257812 41.984375 29.121094 41.761719 29.011719 C 41.753906 28.945312 41.769531 28.921875 41.851562 28.894531 C 42.339844 28.773438 42.554688 28.484375 42.589844 28.046875 C 44.589844 25.816406 46.589844 23.589844 48.621094 21.386719 C 48.609375 21.90625 48.972656 21.808594 49.25 21.808594 C 56.851562 21.808594 64.453125 21.808594 72.054688 21.808594 C 72.058594 23.175781 72.058594 24.539062 72.0625 25.90625 C 72.0625 26.539062 72.058594 27.167969 72.015625 27.847656 C 71.734375 28.105469 71.5 28.324219 71.246094 28.523438 C 70.804688 28.875 70.355469 29.214844 69.90625 29.558594 Z M 69.90625 29.558594 "/>
<path style=" stroke:none;fill-rule:nonzero;fill:rgb(59.607843%,40.784314%,81.568627%);fill-opacity:1;" d="M 12.117188 34.492188 C 11.679688 33.976562 11.246094 33.453125 10.796875 32.945312 C 10.195312 32.257812 9.582031 31.585938 8.957031 30.882812 C 9.417969 30.882812 9.894531 30.9375 10.371094 30.941406 C 15.460938 30.945312 20.546875 30.945312 25.632812 30.941406 C 25.832031 30.941406 26.027344 30.90625 26.257812 30.867188 C 26.953125 31.371094 27.621094 31.902344 28.285156 32.433594 C 29.257812 33.214844 30.226562 33.996094 31.191406 34.785156 C 31.972656 35.425781 32.738281 36.078125 33.511719 36.726562 C 33.722656 36.902344 33.929688 37.082031 34.1875 37.292969 C 34.304688 37.410156 34.367188 37.5 34.449219 37.570312 C 35.703125 38.605469 36.957031 39.632812 38.207031 40.667969 C 38.40625 40.835938 38.589844 41.015625 38.746094 41.207031 C 38.480469 41.246094 38.25 41.285156 38.019531 41.285156 C 31.464844 41.292969 24.90625 41.292969 18.324219 41.28125 C 18.195312 41.15625 18.089844 41.039062 17.984375 40.890625 C 17.976562 40.484375 17.792969 40.285156 17.390625 40.253906 C 16.605469 39.421875 15.839844 38.601562 15.085938 37.773438 C 14.738281 37.390625 14.414062 36.988281 14.066406 36.605469 C 13.421875 35.894531 12.769531 35.195312 12.117188 34.492188 Z M 12.117188 34.492188 "/>
<path style=" stroke:none;fill-rule:nonzero;fill:rgb(54.117647%,36.470588%,74.901961%);fill-opacity:1;" d="M 72.054688 21.765625 C 64.453125 21.808594 56.851562 21.808594 49.25 21.808594 C 48.972656 21.808594 48.609375 21.90625 48.648438 21.371094 C 49.359375 20.546875 50.074219 19.761719 50.785156 18.976562 C 51.992188 17.644531 53.203125 16.316406 54.40625 14.980469 C 55.175781 14.128906 55.9375 13.269531 56.730469 12.4375 C 56.808594 12.925781 57.175781 12.855469 57.464844 12.855469 C 62.328125 12.863281 67.195312 12.859375 72.058594 12.859375 C 72.078125 13.285156 72.117188 13.714844 72.117188 14.144531 C 72.113281 15.179688 72.089844 16.214844 72.082031 17.292969 C 72.097656 18.011719 72.109375 18.6875 72.105469 19.367188 C 72.097656 20.152344 72.074219 20.9375 72.054688 21.765625 Z M 72.054688 21.765625 "/>
<path style=" stroke:none;fill-rule:nonzero;fill:rgb(50.588235%,31.764706%,73.333333%);fill-opacity:1;" d="M 38.78125 41.191406 C 38.589844 41.015625 38.40625 40.835938 38.207031 40.667969 C 36.957031 39.632812 35.703125 38.605469 34.449219 37.570312 C 34.367188 37.5 34.304688 37.410156 34.21875 37.300781 C 34.585938 36.847656 34.972656 36.421875 35.386719 35.980469 C 35.347656 36.1875 35.28125 36.402344 35.199219 36.683594 C 35.382812 36.695312 35.570312 36.71875 35.761719 36.722656 C 43.855469 36.722656 51.953125 36.722656 60.046875 36.730469 C 60.332031 36.730469 60.617188 36.828125 60.917969 36.925781 C 60.253906 37.53125 59.566406 38.09375 58.882812 38.65625 C 57.9375 39.433594 57 40.222656 56.054688 40.996094 C 54.753906 42.0625 53.445312 43.121094 52.144531 44.183594 C 51.195312 44.953125 50.246094 45.722656 49.304688 46.5 C 48.671875 47.023438 48.050781 47.5625 47.394531 48.089844 C 47.21875 47.996094 47.0625 47.921875 46.933594 47.816406 C 46.273438 47.28125 45.621094 46.738281 44.964844 46.199219 C 43.636719 45.09375 42.3125 43.980469 40.972656 42.890625 C 40.253906 42.304688 39.511719 41.757812 38.78125 41.191406 Z M 38.78125 41.191406 "/>
<path style=" stroke:none;fill-rule:nonzero;fill:rgb(55.686275%,38.431373%,76.078431%);fill-opacity:1;" d="M 72.058594 12.8125 C 67.195312 12.859375 62.328125 12.863281 57.464844 12.855469 C 57.175781 12.855469 56.808594 12.925781 56.757812 12.425781 C 56.761719 12.355469 56.773438 12.332031 56.859375 12.304688 C 57.324219 12.214844 57.476562 11.929688 57.503906 11.546875 C 58.484375 10.464844 59.464844 9.386719 60.441406 8.296875 C 61.699219 6.890625 62.929688 5.457031 64.207031 4.070312 C 65.054688 3.148438 65.960938 2.285156 66.875 1.398438 C 67.542969 1.300781 68.183594 1.125 68.820312 1.125 C 70.523438 1.121094 72.035156 2.640625 72.050781 4.347656 C 72.070312 7.15625 72.058594 9.964844 72.058594 12.8125 Z M 72.058594 12.8125 "/>
<path style=" stroke:none;fill-rule:nonzero;fill:rgb(51.764706%,33.333333%,73.72549%);fill-opacity:1;" d="M 42.5625 28.058594 C 42.554688 28.484375 42.339844 28.773438 41.875 28.890625 C 42.070312 28.617188 42.300781 28.34375 42.5625 28.058594 Z M 42.5625 28.058594 "/>
<path style=" stroke:none;fill-rule:nonzero;fill:rgb(54.117647%,36.470588%,74.901961%);fill-opacity:1;" d="M 57.472656 11.5625 C 57.476562 11.929688 57.324219 12.214844 56.878906 12.300781 C 57.046875 12.058594 57.246094 11.816406 57.472656 11.5625 Z M 57.472656 11.5625 "/>
<path style=" stroke:none;fill-rule:nonzero;fill:rgb(50.588235%,31.764706%,73.333333%);fill-opacity:1;" d="M 36.132812 35.144531 C 36.117188 35.222656 36.074219 35.308594 35.996094 35.40625 C 36.011719 35.328125 36.058594 35.246094 36.132812 35.144531 Z M 36.132812 35.144531 "/>
<path style=" stroke:none;fill-rule:nonzero;fill:rgb(75.294118%,57.254902%,95.686275%);fill-opacity:1;" d="M 95.894531 14.230469 C 95.863281 14.21875 95.839844 14.179688 95.816406 14.117188 C 95.839844 14.128906 95.871094 14.167969 95.894531 14.230469 Z M 95.894531 14.230469 "/>
<path style=" stroke:none;fill-rule:nonzero;fill:rgb(55.686275%,34.901961%,79.607843%);fill-opacity:1;" d="M 72.074219 71.351562 C 72.082031 72.398438 72.085938 73.40625 72.027344 74.441406 C 65.117188 74.46875 58.273438 74.472656 51.425781 74.464844 C 50.375 74.464844 49.320312 74.410156 48.269531 74.378906 C 47.414062 73.445312 46.5625 72.511719 45.710938 71.574219 C 45.398438 71.234375 45.089844 70.890625 44.777344 70.550781 C 43.6875 69.363281 42.589844 68.183594 41.503906 66.992188 C 40.316406 65.691406 39.140625 64.382812 37.960938 63.074219 C 37.765625 62.859375 37.578125 62.632812 37.421875 62.382812 C 46.535156 62.351562 55.613281 62.351562 64.726562 62.355469 C 65.84375 63.234375 66.9375 64.105469 68.019531 64.992188 C 69.363281 66.089844 70.699219 67.203125 72.039062 68.308594 C 72.046875 69.136719 72.050781 69.96875 72.058594 70.796875 C 72.058594 70.96875 72.0625 71.136719 72.074219 71.351562 Z M 72.074219 71.351562 "/>
<path style=" stroke:none;fill-rule:nonzero;fill:rgb(56.862745%,37.254902%,80.392157%);fill-opacity:1;" d="M 64.695312 62.347656 C 55.613281 62.351562 46.535156 62.351562 37.410156 62.355469 C 36.640625 61.554688 35.921875 60.75 35.195312 59.953125 C 34.867188 59.59375 34.519531 59.253906 34.144531 58.875 C 34.03125 58.710938 33.976562 58.558594 33.875 58.445312 C 32.945312 57.410156 32.011719 56.382812 31.070312 55.355469 C 30.019531 54.199219 28.953125 53.054688 27.90625 51.898438 C 27.503906 51.453125 27.132812 50.980469 26.777344 50.519531 C 27.136719 50.742188 27.515625 50.917969 27.765625 51.207031 C 27.957031 51.429688 28.113281 51.546875 28.40625 51.546875 C 35.808594 51.539062 43.207031 51.542969 50.605469 51.53125 C 50.796875 51.53125 50.988281 51.351562 51.207031 51.269531 C 51.347656 51.363281 51.464844 51.4375 51.566406 51.523438 C 52.164062 52.015625 52.757812 52.519531 53.355469 53.011719 C 54.175781 53.691406 55.003906 54.363281 55.832031 55.039062 C 56.648438 55.707031 57.464844 56.378906 58.285156 57.046875 C 59.003906 57.636719 59.726562 58.222656 60.445312 58.8125 C 61.28125 59.5 62.121094 60.183594 62.953125 60.875 C 63.539062 61.359375 64.113281 61.859375 64.695312 62.347656 Z M 64.695312 62.347656 "/>
<path style=" stroke:none;fill-rule:nonzero;fill:rgb(47.843137%,27.843137%,71.764706%);fill-opacity:1;" d="M 26.746094 50.519531 C 27.132812 50.980469 27.503906 51.453125 27.90625 51.898438 C 28.953125 53.054688 30.019531 54.199219 31.070312 55.355469 C 32.011719 56.382812 32.945312 57.410156 33.875 58.445312 C 33.976562 58.558594 34.03125 58.710938 34.109375 58.875 C 33.527344 59.417969 32.945312 59.933594 32.351562 60.429688 C 31.496094 61.144531 30.632812 61.851562 29.765625 62.554688 C 28.652344 63.457031 27.535156 64.351562 26.417969 65.25 C 26.359375 65.296875 26.308594 65.355469 26.222656 65.425781 C 25.96875 65.371094 25.746094 65.25 25.523438 65.25 C 20.296875 65.242188 15.070312 65.242188 9.84375 65.238281 C 9.628906 65.238281 9.414062 65.199219 9.164062 65.160156 C 9.519531 64.679688 9.902344 64.207031 10.304688 63.75 C 10.894531 63.078125 11.492188 62.414062 12.132812 61.714844 C 12.925781 60.839844 13.667969 60 14.417969 59.167969 C 15.144531 58.367188 15.886719 57.585938 16.609375 56.785156 C 18.1875 55.03125 19.75 53.269531 21.324219 51.519531 C 22.355469 50.371094 23.398438 49.234375 24.460938 48.109375 C 24.652344 48.289062 24.820312 48.449219 24.980469 48.617188 C 25.570312 49.25 26.15625 49.886719 26.746094 50.519531 Z M 26.746094 50.519531 "/>
<path style=" stroke:none;fill-rule:nonzero;fill:rgb(54.117647%,32.54902%,78.823529%);fill-opacity:1;" d="M 48.28125 74.410156 C 49.320312 74.410156 50.375 74.464844 51.425781 74.464844 C 58.273438 74.472656 65.117188 74.46875 72.007812 74.472656 C 72.054688 77.953125 72.054688 81.433594 72.011719 84.957031 C 67.566406 85 63.171875 85 58.777344 85.003906 C 58.476562 85.003906 58.175781 85.007812 57.875 85.011719 C 57.054688 84.109375 56.230469 83.203125 55.410156 82.300781 C 55.066406 81.925781 54.722656 81.550781 54.378906 81.175781 C 53.339844 80.042969 52.300781 78.910156 51.265625 77.777344 C 50.328125 76.753906 49.394531 75.734375 48.464844 74.707031 C 48.394531 74.632812 48.351562 74.53125 48.28125 74.410156 Z M 48.28125 74.410156 "/>
<path style=" stroke:none;fill-rule:nonzero;fill:rgb(52.941176%,30.980392%,78.431373%);fill-opacity:1;" d="M 57.886719 85.042969 C 58.175781 85.007812 58.476562 85.003906 58.777344 85.003906 C 63.171875 85 67.566406 85 72.007812 85 C 72.054688 87.25 72.066406 89.5 72.054688 91.75 C 72.042969 93.566406 70.535156 95.074219 68.726562 95.066406 C 68.207031 95.066406 67.6875 94.945312 67.128906 94.882812 C 67.089844 94.882812 67.046875 94.886719 67.015625 94.859375 C 66.953125 94.824219 66.925781 94.808594 66.90625 94.789062 C 66.347656 94.269531 65.773438 93.769531 65.238281 93.226562 C 64.820312 92.800781 64.457031 92.320312 64.054688 91.878906 C 63.007812 90.730469 61.949219 89.585938 60.898438 88.4375 C 59.996094 87.449219 59.097656 86.460938 58.203125 85.472656 C 58.089844 85.347656 58 85.203125 57.886719 85.042969 Z M 57.886719 85.042969 "/>
<path style=" stroke:none;fill-rule:nonzero;fill:rgb(70.588235%,49.411765%,94.509804%);fill-opacity:1;" d="M 66.914062 94.8125 C 66.925781 94.808594 66.953125 94.824219 66.996094 94.851562 C 66.980469 94.855469 66.953125 94.84375 66.914062 94.8125 Z M 66.914062 94.8125 "/>
<path style=" stroke:none;fill-rule:nonzero;fill:rgb(0%,0%,0%);fill-opacity:1;" d="M 64.726562 62.355469 C 64.113281 61.859375 63.539062 61.359375 62.953125 60.875 C 62.121094 60.183594 61.28125 59.5 60.445312 58.8125 C 59.726562 58.222656 59.003906 57.636719 58.285156 57.046875 C 57.464844 56.378906 56.648438 55.707031 55.832031 55.039062 C 55.003906 54.363281 54.175781 53.691406 53.355469 53.011719 C 52.757812 52.519531 52.164062 52.015625 51.566406 51.523438 C 51.464844 51.4375 51.347656 51.363281 51.199219 51.246094 C 51.101562 51.160156 51.042969 51.113281 50.972656 51.039062 C 50.875 50.96875 50.792969 50.921875 50.695312 50.851562 C 50.351562 50.550781 50.019531 50.285156 49.695312 50.011719 C 48.933594 49.375 48.179688 48.734375 47.425781 48.097656 C 48.050781 47.5625 48.671875 47.023438 49.304688 46.5 C 50.246094 45.722656 51.195312 44.953125 52.144531 44.183594 C 53.445312 43.121094 54.753906 42.0625 56.054688 40.996094 C 57 40.222656 57.9375 39.433594 58.882812 38.65625 C 59.566406 38.09375 60.253906 37.53125 60.953125 36.941406 C 62.203125 35.902344 63.441406 34.890625 64.683594 33.882812 C 65.9375 32.863281 67.199219 31.855469 68.453125 30.835938 C 68.9375 30.441406 69.40625 30.023438 69.894531 29.585938 C 70.355469 29.214844 70.804688 28.875 71.246094 28.523438 C 71.5 28.324219 71.734375 28.105469 72.007812 27.886719 C 72.042969 30.269531 72.046875 32.660156 72.054688 35.09375 C 72.058594 36.855469 72.046875 38.578125 72.046875 40.296875 C 72.046875 43.488281 72.046875 46.679688 72.054688 49.914062 C 72.054688 50.453125 72.046875 50.949219 72.046875 51.445312 C 72.046875 57.039062 72.046875 62.628906 72.042969 68.265625 C 70.699219 67.203125 69.363281 66.089844 68.019531 64.992188 C 66.9375 64.105469 65.84375 63.234375 64.726562 62.355469 Z M 64.726562 62.355469 "/>
<path style=" stroke:none;fill-rule:nonzero;fill:rgb(0%,0%,0%);fill-opacity:1;" d="M 24.4375 48.089844 C 23.398438 49.234375 22.355469 50.371094 21.324219 51.519531 C 19.75 53.269531 18.1875 55.03125 16.609375 56.785156 C 15.886719 57.585938 15.144531 58.367188 14.417969 59.167969 C 13.667969 60 12.925781 60.839844 12.148438 61.6875 C 12.117188 60.949219 12.113281 60.203125 12.105469 59.414062 C 12.105469 57.285156 12.109375 55.203125 12.105469 53.074219 C 12.105469 51.042969 12.109375 49.050781 12.105469 47.019531 C 12.105469 44.609375 12.109375 42.246094 12.105469 39.839844 C 12.105469 38.058594 12.113281 36.316406 12.117188 34.535156 C 12.769531 35.195312 13.421875 35.894531 14.066406 36.605469 C 14.414062 36.988281 14.738281 37.390625 15.085938 37.773438 C 15.839844 38.601562 16.605469 39.421875 17.40625 40.285156 C 17.625 40.527344 17.804688 40.726562 17.984375 40.925781 C 18.089844 41.039062 18.195312 41.15625 18.335938 41.3125 C 18.46875 41.472656 18.546875 41.605469 18.648438 41.714844 C 19.820312 43.015625 20.992188 44.3125 22.167969 45.605469 C 22.921875 46.4375 23.679688 47.261719 24.4375 48.089844 Z M 24.4375 48.089844 "/>
<path style=" stroke:none;fill-rule:nonzero;fill:rgb(58.431373%,38.823529%,80.784314%);fill-opacity:1;" d="M 24.460938 48.109375 C 23.679688 47.261719 22.921875 46.4375 22.167969 45.605469 C 20.992188 44.3125 19.820312 43.015625 18.648438 41.714844 C 18.546875 41.605469 18.46875 41.472656 18.363281 41.320312 C 24.90625 41.292969 31.464844 41.292969 38.019531 41.285156 C 38.25 41.285156 38.480469 41.246094 38.746094 41.207031 C 39.511719 41.757812 40.253906 42.304688 40.972656 42.890625 C 42.3125 43.980469 43.636719 45.09375 44.964844 46.199219 C 45.621094 46.738281 46.273438 47.28125 46.933594 47.816406 C 47.0625 47.921875 47.21875 47.996094 47.394531 48.089844 C 48.179688 48.734375 48.933594 49.375 49.695312 50.011719 C 50.019531 50.285156 50.351562 50.550781 50.695312 50.882812 C 50.730469 51.027344 50.753906 51.109375 50.777344 51.195312 C 50.847656 51.152344 50.914062 51.109375 50.984375 51.066406 C 51.042969 51.113281 51.101562 51.160156 51.167969 51.230469 C 50.988281 51.351562 50.796875 51.53125 50.605469 51.53125 C 43.207031 51.542969 35.808594 51.539062 28.40625 51.546875 C 28.113281 51.546875 27.957031 51.429688 27.765625 51.207031 C 27.515625 50.917969 27.136719 50.742188 26.777344 50.519531 C 26.15625 49.886719 25.570312 49.25 24.980469 48.617188 C 24.820312 48.449219 24.652344 48.289062 24.460938 48.109375 Z M 24.460938 48.109375 "/>
<path style=" stroke:none;fill-rule:nonzero;fill:rgb(58.431373%,38.823529%,80.784314%);fill-opacity:1;" d="M 17.984375 40.890625 C 17.804688 40.726562 17.625 40.527344 17.433594 40.296875 C 17.792969 40.285156 17.976562 40.484375 17.984375 40.890625 Z M 17.984375 40.890625 "/>
<path style=" stroke:none;fill-rule:nonzero;fill:rgb(56.862745%,37.254902%,80.392157%);fill-opacity:1;" d="M 50.972656 51.039062 C 50.914062 51.109375 50.847656 51.152344 50.777344 51.195312 C 50.753906 51.109375 50.730469 51.027344 50.707031 50.910156 C 50.792969 50.921875 50.875 50.96875 50.972656 51.039062 Z M 50.972656 51.039062 "/>
</g>
</svg>
